<svg width="22" height="21" viewBox="0 0 22 21" fill="none" xmlns="http://www.w3.org/2000/svg">
<path d="M10.0003 3C5.41699 3 1.66699 5.98333 1.66699 9.66667C1.68792 10.5522 1.90418 11.4223 2.30033 12.2146C2.69649 13.0069 3.26275 13.7019 3.95866 14.25C3.95866 14.75 3.60866 16.0583 1.66699 18C3.64199 17.9083 5.53366 17.1667 7.05866 15.9167C8.00866 16.1917 9.00866 16.3333 10.0003 16.3333C14.5837 16.3333 18.3337 13.35 18.3337 9.66667C18.3337 5.98333 14.5837 3 10.0003 3ZM10.0003 14.6667C6.31699 14.6667 3.33366 12.425 3.33366 9.66667C3.33366 6.90833 6.31699 4.66667 10.0003 4.66667C13.6837 4.66667 16.667 6.90833 16.667 9.66667C16.667 12.425 13.6837 14.6667 10.0003 14.6667Z" fill="darkblue" fill-opacity="0.85"/>
</svg>
