<svg width="21" height="19" viewBox="0 0 21 19" fill="none" xmlns="http://www.w3.org/2000/svg">
<path d="M20 6.53642C20.0033 7.9897 19.4401 9.38774 18.4287 10.437C16.1097 12.8275 13.8601 15.3199 11.4556 17.6225C10.9036 18.1419 10.0287 18.123 9.50141 17.58L2.57108 10.438C0.476306 8.27894 0.476306 4.79389 2.57108 2.6358C3.06617 2.11918 3.66163 1.70789 4.32137 1.42687C4.98111 1.14585 5.69138 1.00094 6.40913 1.00094C7.12687 1.00094 7.83714 1.14585 8.49688 1.42687C9.15662 1.70789 9.75208 2.11918 10.2472 2.6358L10.4999 2.89458L10.7516 2.6358C11.2477 2.12041 11.8434 1.70987 12.5029 1.42879C13.1623 1.14771 13.8721 1.00186 14.5897 1C16.0337 1 17.4141 1.58934 18.4277 2.6358C19.4395 3.68495 20.003 5.083 20 6.53642V6.53642Z" stroke="#252B5C" stroke-width="1.67" stroke-linejoin="round"/>
</svg>
