<svg width="18" height="14" viewBox="0 0 18 14" fill="none" xmlns="http://www.w3.org/2000/svg">
<path fill-rule="evenodd" clip-rule="evenodd" d="M9.8089 3.06202C9.8089 2.27654 10.4457 1.63979 11.2311 1.63979C12.0166 1.63979 12.6533 2.27654 12.6533 3.06202C12.6533 3.84749 12.0166 4.48424 11.2311 4.48424C10.4457 4.48424 9.8089 3.84749 9.8089 3.06202ZM8.29321 3.77386L1.71997 3.77378C1.27815 3.77377 0.919978 3.4156 0.919983 2.97377C0.919988 2.53194 1.27816 2.17377 1.71999 2.17378L8.34151 2.17386C8.72086 0.938163 9.87108 0.0397949 11.2311 0.0397949C12.5909 0.0397949 13.741 0.937843 14.1205 2.1732L16.2977 2.173C16.7395 2.17296 17.0977 2.5311 17.0978 2.97293C17.0978 3.41475 16.7397 3.77296 16.2978 3.773L14.1692 3.77319C13.8494 5.09916 12.6553 6.08424 11.2311 6.08424C9.80719 6.08424 8.61326 5.09948 8.29321 3.77386Z" fill="#252B5C"/>
<path fill-rule="evenodd" clip-rule="evenodd" d="M8.20895 10.8843C8.20895 10.0988 7.5722 9.46206 6.78673 9.46206C6.00126 9.46206 5.36451 10.0988 5.36451 10.8843C5.36451 11.6698 6.00126 12.3065 6.78673 12.3065C7.5722 12.3065 8.20895 11.6698 8.20895 10.8843ZM9.72464 11.5961L16.2978 11.596C16.7397 11.596 17.0978 11.2379 17.0978 10.796C17.0978 10.3542 16.7397 9.99604 16.2978 9.99605L9.67634 9.99612C9.29699 8.76043 8.14677 7.86206 6.78673 7.86206C5.42693 7.86206 4.27688 8.76011 3.89732 9.99546L1.72013 9.99526C1.2783 9.99522 0.920094 10.3534 0.920052 10.7952C0.920012 11.237 1.27815 11.5952 1.71998 11.5953L3.84866 11.5955C4.16847 12.9214 5.36256 13.9065 6.78673 13.9065C8.21066 13.9065 9.40459 12.9217 9.72464 11.5961Z" fill="#252B5C"/>
</svg>
