<svg width="26" height="25" viewBox="0 0 26 25" fill="none" xmlns="http://www.w3.org/2000/svg">
<g id="Logo / Google - normal">
<path id="Vector" d="M23.1752 10.4598H22.3361V10.4166H12.9611V14.5833H18.8481C17.9892 17.0088 15.6814 18.7499 12.9611 18.7499C9.50954 18.7499 6.7111 15.9515 6.7111 12.4999C6.7111 9.04836 9.50954 6.24992 12.9611 6.24992C14.5543 6.24992 16.0038 6.85096 17.1075 7.83273L20.0538 4.88638C18.1934 3.15252 15.7049 2.08325 12.9611 2.08325C7.2085 2.08325 2.54443 6.74731 2.54443 12.4999C2.54443 18.2525 7.2085 22.9166 12.9611 22.9166C18.7137 22.9166 23.3778 18.2525 23.3778 12.4999C23.3778 11.8015 23.3059 11.1197 23.1752 10.4598Z" fill="#FFC107"/>
<path id="Vector_2" d="M3.74561 7.65148L7.168 10.1614C8.09404 7.86867 10.3368 6.24992 12.9612 6.24992C14.5545 6.24992 16.0039 6.85096 17.1076 7.83273L20.0539 4.88638C18.1935 3.15252 15.705 2.08325 12.9612 2.08325C8.96019 2.08325 5.4904 4.34211 3.74561 7.65148Z" fill="#FF3D00"/>
<path id="Vector_3" d="M12.9612 22.9168C15.6518 22.9168 18.0966 21.8871 19.945 20.2126L16.7211 17.4845C15.6401 18.3066 14.3192 18.7512 12.9612 18.7501C10.2518 18.7501 7.95129 17.0225 7.08462 14.6116L3.68774 17.2288C5.4117 20.6022 8.91274 22.9168 12.9612 22.9168Z" fill="#4CAF50"/>
<path id="Vector_4" d="M23.1752 10.46H22.3362V10.4167H12.9612V14.5834H18.8482C18.4373 15.7378 17.6973 16.7465 16.7195 17.485L16.7211 17.4839L19.945 20.2121C19.7169 20.4194 23.3778 17.7084 23.3778 12.5001C23.3778 11.8016 23.306 11.1199 23.1752 10.46Z" fill="#1976D2"/>
</g>
</svg>
