<svg width="25" height="25" viewBox="0 0 25 25" fill="none" xmlns="http://www.w3.org/2000/svg">
<path fill-rule="evenodd" clip-rule="evenodd" d="M15 21.599V18.5C15 18.0353 15 17.803 14.9616 17.6098C14.8038 16.8164 14.1836 16.1962 13.3902 16.0384C13.197 16 12.9647 16 12.5 16C12.0354 16 11.803 16 11.6098 16.0384C10.8165 16.1962 10.1963 16.8164 10.0384 17.6098C10 17.803 10 18.0353 10 18.5V21.599H8.71691C8.3629 21.599 7.82232 21.5317 7.28246 21.3815C6.75733 21.2353 6.11841 20.98 5.66729 20.5327C5.37444 20.2423 5.12948 19.9974 4.78221 19.4184L4.76748 19.3938C4.56932 19.0635 4.42948 18.8304 4.30197 18.4621C4.17427 18.0933 4.13034 17.7471 4.06768 17.2534L4.06767 17.2533L4.06767 17.2533L4.06039 17.196L3.31849 11.3603C3.3145 11.3289 3.3125 11.2973 3.3125 11.2657C3.3125 10.1746 3.82066 9.14631 4.68668 8.47908L4.687 8.47883L10.2898 4.15829L12.4993 4.15825V4.375H12.4993V4.15825L14.7088 4.15829L20.3115 8.47883L20.3119 8.47908C21.1779 9.14631 21.686 10.1746 21.686 11.2657C21.686 11.2973 21.684 11.3289 21.68 11.3603L20.9381 17.196L20.9309 17.2533L20.9309 17.2533C20.8682 17.7471 20.8243 18.0933 20.6966 18.4621C20.569 18.8304 20.4292 19.0635 20.231 19.3938L20.2163 19.4184C19.869 19.9974 19.6241 20.2423 19.3312 20.5327C18.8801 20.98 18.2412 21.2353 17.7161 21.3815C17.1762 21.5317 16.6356 21.599 16.2816 21.599H15ZM10.2898 4.15825L12.4993 4.15823V3.41713L12.4677 3.41699C11.6796 3.41699 10.9132 3.67744 10.2898 4.15825ZM14.7087 4.15825L12.4993 4.15823V3.41713L12.5308 3.41699C13.3189 3.41699 14.0853 3.67744 14.7087 4.15825Z" fill="url(#paint0_radial_994_416)"/>
<defs>
<radialGradient id="paint0_radial_994_416" cx="0" cy="0" r="1" gradientUnits="userSpaceOnUse" gradientTransform="translate(3.3125 0.457124) rotate(54.1508) scale(26.0831 26.1703)">
<stop offset="0.046875" stop-color="#234F68"/>
<stop offset="0.983052" stop-color="#234F68" stop-opacity="0.83"/>
</radialGradient>
</defs>
</svg>
