<svg width="376" height="144" viewBox="0 0 376 144" fill="none" xmlns="http://www.w3.org/2000/svg">
<g clip-path="url(#clip0_241_1761)">
<path d="M1.37793 122.69C1.37928 120.922 2.08409 119.226 3.33743 117.976C4.59078 116.726 6.29011 116.024 8.06193 116.024C9.83375 116.024 11.5331 116.726 12.7864 117.976C14.0398 119.226 14.7446 120.922 14.7459 122.69" fill="#F2F2F2"/>
<path d="M8.062 122.69C8.01409 122.69 7.96815 122.671 7.93427 122.637C7.90039 122.603 7.88136 122.558 7.88135 122.51V118.994C7.88135 118.946 7.90038 118.9 7.93426 118.867C7.96814 118.833 8.01408 118.814 8.062 118.814C8.10991 118.814 8.15586 118.833 8.18973 118.867C8.22361 118.9 8.24265 118.946 8.24265 118.994V122.51C8.24264 122.558 8.2236 122.603 8.18973 122.637C8.15585 122.671 8.1099 122.69 8.062 122.69Z" fill="#CCCCCC"/>
<path d="M8.06197 121.482C8.01881 121.482 7.97707 121.467 7.94438 121.438L5.77661 119.582C5.75837 119.566 5.74336 119.547 5.73244 119.526C5.72152 119.505 5.71491 119.482 5.71299 119.458C5.71107 119.434 5.71388 119.411 5.72126 119.388C5.72864 119.365 5.74044 119.344 5.75598 119.326C5.77152 119.308 5.79049 119.293 5.8118 119.283C5.83311 119.272 5.85633 119.266 5.88013 119.264C5.90392 119.262 5.92782 119.265 5.95045 119.273C5.97307 119.28 5.99396 119.292 6.01193 119.308L8.17972 121.165C8.20773 121.189 8.2277 121.221 8.23695 121.257C8.2462 121.292 8.24428 121.33 8.23146 121.364C8.21863 121.399 8.19551 121.429 8.1652 121.45C8.1349 121.471 8.09887 121.482 8.06196 121.482L8.06197 121.482Z" fill="#CCCCCC"/>
<path d="M21.9719 122.69C21.9733 120.922 22.6781 119.226 23.9314 117.976C25.1848 116.726 26.8841 116.024 28.6559 116.024C30.4277 116.024 32.1271 116.726 33.3804 117.976C34.6338 119.226 35.3386 120.922 35.3399 122.69" fill="#F2F2F2"/>
<path d="M28.656 122.69C28.6081 122.69 28.5621 122.671 28.5283 122.637C28.4944 122.603 28.4753 122.558 28.4753 122.51V118.994C28.4753 118.946 28.4944 118.9 28.5283 118.867C28.5621 118.833 28.6081 118.814 28.656 118.814C28.7039 118.814 28.7499 118.833 28.7837 118.867C28.8176 118.9 28.8366 118.946 28.8366 118.994V122.51C28.8366 122.558 28.8176 122.603 28.7837 122.637C28.7498 122.671 28.7039 122.69 28.656 122.69Z" fill="#CCCCCC"/>
<path d="M28.6559 121.482C28.6127 121.482 28.571 121.467 28.5383 121.439L26.3705 119.582C26.3522 119.566 26.3372 119.548 26.3262 119.526C26.3153 119.505 26.3087 119.482 26.3067 119.458C26.3048 119.435 26.3076 119.411 26.315 119.388C26.3224 119.365 26.3342 119.344 26.3497 119.326C26.3653 119.308 26.3843 119.293 26.4056 119.283C26.4269 119.272 26.4502 119.266 26.474 119.264C26.4978 119.262 26.5217 119.265 26.5443 119.273C26.567 119.28 26.5879 119.292 26.6058 119.308L28.7736 121.165C28.8016 121.189 28.8216 121.221 28.8308 121.257C28.8401 121.292 28.8382 121.33 28.8253 121.364C28.8125 121.399 28.7894 121.429 28.7591 121.45C28.7288 121.471 28.6927 121.482 28.6558 121.482L28.6559 121.482Z" fill="#CCCCCC"/>
<path d="M32.325 137.005C38.7766 137.005 44.0067 135.787 44.0067 134.284C44.0067 132.782 38.7766 131.564 32.325 131.564C25.8734 131.564 20.6433 132.782 20.6433 134.284C20.6433 135.787 25.8734 137.005 32.325 137.005Z" fill="#F2F2F2"/>
<path d="M26.3618 22.6151C29.4254 13.0672 36.9064 5.66253 45.7782 1.25844C56.3046 -3.96698 68.4005 -4.55862 79.83 -2.52489C92.1681 -0.32946 103.7 4.73164 114.862 10.2547C125.81 15.6721 136.582 21.3925 147.968 25.8694C170.699 34.7944 194.792 39.7751 219.205 40.5964C241.179 41.328 264.673 38.9252 283.487 26.599C300.726 15.305 311.696 -3.32701 317.41 -22.7488C318.141 -25.2353 318.791 -27.7431 319.36 -30.2723C319.526 -31.0029 318.4 -31.3148 318.234 -30.5822C313.625 -10.3009 303.798 9.74394 287.006 22.6722C268.844 36.6549 245.009 39.8874 222.703 39.5175C198.023 39.0874 173.605 34.3846 150.537 25.6187C138.858 21.1813 127.837 15.4192 116.676 9.85632C105.76 4.41564 94.5371 -0.677319 82.5333 -3.18659C71.5723 -5.47791 59.8368 -5.61753 49.2686 -1.54023C40.5666 1.81712 32.6322 7.80137 27.9888 15.9876C26.8566 17.9938 25.9339 20.1108 25.2353 22.3052C25.0055 23.0214 26.133 23.3281 26.3618 22.6151Z" fill="#F2F2F2"/>
<path d="M193.138 111.888C193.241 111.888 193.34 111.847 193.413 111.774C193.486 111.702 193.527 111.603 193.527 111.5C193.527 111.397 193.486 111.298 193.413 111.225C193.34 111.152 193.241 111.111 193.138 111.111H189.439V109.557H193.138C193.241 109.557 193.34 109.516 193.413 109.443C193.486 109.37 193.527 109.271 193.527 109.168C193.527 109.065 193.486 108.966 193.413 108.893C193.34 108.82 193.241 108.779 193.138 108.779H161.597C161.494 108.779 161.395 108.82 161.322 108.893C161.249 108.966 161.208 109.065 161.208 109.168C161.208 109.271 161.249 109.37 161.322 109.443C161.395 109.516 161.494 109.557 161.597 109.557H165.297V111.111H161.597C161.494 111.111 161.395 111.152 161.322 111.225C161.249 111.298 161.208 111.397 161.208 111.5C161.208 111.603 161.249 111.702 161.322 111.774C161.395 111.847 161.494 111.888 161.597 111.888H165.297V113.443H161.597C161.494 113.443 161.395 113.484 161.322 113.557C161.249 113.629 161.208 113.728 161.208 113.831C161.208 113.934 161.249 114.033 161.322 114.106C161.395 114.179 161.494 114.22 161.597 114.22H165.297V115.774H161.987C161.78 115.774 161.582 115.856 161.436 116.002C161.29 116.148 161.208 116.346 161.208 116.552C161.208 116.758 161.29 116.956 161.436 117.101C161.582 117.247 161.78 117.329 161.987 117.329H165.138C165.115 117.391 165.103 117.457 165.102 117.523V122.964C165.102 123.119 165.163 123.267 165.273 123.376C165.383 123.486 165.531 123.547 165.686 123.547C165.841 123.547 165.989 123.486 166.099 123.376C166.209 123.267 166.27 123.119 166.27 122.964V117.523C166.269 117.457 166.257 117.391 166.234 117.329H188.501C188.478 117.391 188.466 117.457 188.465 117.523V122.964C188.465 123.119 188.527 123.267 188.636 123.376C188.746 123.486 188.894 123.547 189.049 123.547C189.204 123.547 189.353 123.486 189.462 123.376C189.572 123.267 189.633 123.119 189.633 122.964V117.523C189.633 117.457 189.621 117.391 189.598 117.329H192.749C192.955 117.329 193.153 117.247 193.299 117.101C193.445 116.956 193.527 116.758 193.527 116.552C193.527 116.346 193.445 116.148 193.299 116.002C193.153 115.856 192.955 115.774 192.749 115.774H189.439V114.22H193.138C193.241 114.22 193.34 114.179 193.413 114.106C193.486 114.033 193.527 113.934 193.527 113.831C193.527 113.728 193.486 113.629 193.413 113.557C193.34 113.484 193.241 113.443 193.138 113.443H189.439V111.888H193.138ZM166.075 109.557H188.66V111.111H166.075V109.557ZM188.66 115.774H166.075V114.22H188.66V115.774ZM188.66 113.443H166.075V111.888H188.66V113.443Z" fill="#3F3D56"/>
<path d="M74.3789 95.5771C74.3789 88.7136 68.8002 72.4268 61.9185 72.4268C55.0367 72.4268 49.458 88.7136 49.458 95.5771C49.458 98.8753 50.7708 102.038 53.1076 104.371C55.4444 106.703 58.6137 108.013 61.9185 108.013C65.2232 108.013 68.3926 106.703 70.7293 104.371C73.0661 102.038 74.3789 98.8753 74.3789 95.5771H74.3789Z" fill="#E6E6E6"/>
<path d="M71.2637 95.5771C71.2637 88.7136 65.6849 72.4268 58.8032 72.4268C51.9215 72.4268 46.3428 88.7136 46.3428 95.5771C46.3428 98.8753 47.6556 102.038 49.9924 104.371C52.3291 106.703 55.4985 108.013 58.8032 108.013C62.108 108.013 65.2773 106.703 67.6141 104.371C69.9509 102.038 71.2637 98.8753 71.2637 95.5771H71.2637Z" fill="#F2F2F2"/>
<path d="M59.1926 123.383C59.0893 123.383 58.9903 123.342 58.9173 123.269C58.8443 123.196 58.8032 123.098 58.8032 122.995V88.3525C58.8032 88.2494 58.8442 88.1506 58.9173 88.0777C58.9903 88.0048 59.0893 87.9639 59.1926 87.9639C59.2959 87.9639 59.3949 88.0048 59.468 88.0777C59.541 88.1506 59.582 88.2494 59.582 88.3525V122.995C59.582 123.098 59.541 123.196 59.468 123.269C59.3949 123.342 59.2959 123.383 59.1926 123.383Z" fill="#CCCCCC"/>
<path d="M59.1928 94.0315C59.1158 94.0315 59.0405 94.0087 58.9765 93.966C58.9125 93.9233 58.8626 93.8626 58.8331 93.7916C58.8036 93.7206 58.7959 93.6425 58.8109 93.5671C58.826 93.4917 58.863 93.4225 58.9175 93.3682L64.0098 88.2857C64.0828 88.2128 64.1818 88.1719 64.2851 88.1719C64.3883 88.1719 64.4874 88.2128 64.5604 88.2857C64.6334 88.3586 64.6744 88.4574 64.6744 88.5605C64.6744 88.6635 64.6334 88.7624 64.5604 88.8352L59.4681 93.9177C59.432 93.9538 59.3891 93.9825 59.3418 94.002C59.2946 94.0216 59.2439 94.0316 59.1928 94.0315Z" fill="#CCCCCC"/>
<path d="M202.488 123.383C202.385 123.383 202.285 123.342 202.212 123.269C202.139 123.196 202.098 123.098 202.098 122.995V88.3525C202.098 88.2494 202.139 88.1506 202.212 88.0777C202.285 88.0048 202.385 87.9639 202.488 87.9639C202.591 87.9639 202.69 88.0048 202.763 88.0777C202.836 88.1506 202.877 88.2494 202.877 88.3525V122.995C202.877 123.098 202.836 123.196 202.763 123.269C202.69 123.342 202.591 123.383 202.488 123.383Z" fill="#3F3D56"/>
<path d="M244.153 95.5771C244.153 88.7136 238.574 72.4268 231.692 72.4268C224.81 72.4268 219.232 88.7136 219.232 95.5771C219.232 98.8753 220.544 102.038 222.881 104.371C225.218 106.703 228.387 108.013 231.692 108.013C234.997 108.013 238.166 106.703 240.503 104.371C242.84 102.038 244.153 98.8753 244.153 95.5771H244.153Z" fill="#E6E6E6"/>
<path d="M241.037 95.5771C241.037 88.7136 235.459 72.4268 228.577 72.4268C221.695 72.4268 216.116 88.7136 216.116 95.5771C216.116 98.8753 217.429 102.038 219.766 104.371C222.103 106.703 225.272 108.013 228.577 108.013C231.882 108.013 235.051 106.703 237.388 104.371C239.725 102.038 241.037 98.8753 241.037 95.5771H241.037Z" fill="#F2F2F2"/>
<path d="M228.966 123.383C228.863 123.383 228.764 123.342 228.691 123.269C228.618 123.196 228.577 123.098 228.577 122.995V88.3525C228.577 88.2494 228.618 88.1506 228.691 88.0777C228.764 88.0048 228.863 87.9639 228.966 87.9639C229.07 87.9639 229.169 88.0048 229.242 88.0777C229.315 88.1506 229.356 88.2494 229.356 88.3525V122.995C229.356 123.098 229.315 123.196 229.242 123.269C229.169 123.342 229.07 123.383 228.966 123.383Z" fill="#CCCCCC"/>
<path d="M228.966 94.0315C228.889 94.0315 228.814 94.0087 228.75 93.966C228.686 93.9233 228.636 93.8626 228.607 93.7916C228.577 93.7206 228.57 93.6425 228.585 93.5671C228.6 93.4917 228.637 93.4225 228.691 93.3682L233.783 88.2857C233.856 88.2128 233.955 88.1719 234.059 88.1719C234.162 88.1719 234.261 88.2128 234.334 88.2857C234.407 88.3586 234.448 88.4574 234.448 88.5605C234.448 88.6635 234.407 88.7624 234.334 88.8352L229.242 93.9177C229.206 93.9538 229.163 93.9825 229.115 94.002C229.068 94.0216 229.018 94.0316 228.966 94.0315Z" fill="#CCCCCC"/>
<path d="M124.999 123.209H93.0696C92.1921 123.208 91.3508 122.859 90.7303 122.24C90.1098 121.621 89.7608 120.781 89.7598 119.905V-8.72845C89.7608 -9.60423 90.1098 -10.4439 90.7303 -11.0631C91.3508 -11.6824 92.1921 -12.0308 93.0696 -12.0317H124.999C125.877 -12.0308 126.718 -11.6824 127.339 -11.0631C127.959 -10.4439 128.308 -9.60424 128.309 -8.72845V119.905C128.308 120.781 127.959 121.621 127.339 122.24C126.718 122.859 125.877 123.208 124.999 123.209Z" fill="#E6E6E6"/>
<path d="M105.919 123.209H73.9895C73.112 123.208 72.2707 122.859 71.6502 122.24C71.0297 121.621 70.6807 120.781 70.6797 119.905V-8.72845C70.6807 -9.60423 71.0297 -10.4439 71.6502 -11.0631C72.2707 -11.6824 73.112 -12.0308 73.9895 -12.0317H105.919C106.797 -12.0308 107.638 -11.6824 108.259 -11.0631C108.879 -10.4439 109.228 -9.60423 109.229 -8.72845V119.905C109.228 120.781 108.879 121.621 108.259 122.24C107.638 122.859 106.797 123.208 105.919 123.209Z" fill="#F2F2F2"/>
<path d="M86.45 17.1148H79.0516C78.7935 17.1145 78.5461 17.012 78.3636 16.8299C78.1811 16.6477 78.0784 16.4008 78.0781 16.1432V4.87317C78.0784 4.61558 78.1811 4.36863 78.3636 4.1865C78.5461 4.00436 78.7935 3.90191 79.0516 3.90161H86.45C86.7081 3.90191 86.9555 4.00436 87.138 4.1865C87.3205 4.36863 87.4232 4.61558 87.4235 4.87317V16.1432C87.4232 16.4008 87.3205 16.6477 87.138 16.8299C86.9555 17.012 86.7081 17.1145 86.45 17.1148Z" fill="white"/>
<path d="M100.857 17.1148H93.4591C93.201 17.1145 92.9535 17.012 92.771 16.8299C92.5885 16.6477 92.4859 16.4008 92.4856 16.1432V4.87317C92.4859 4.61558 92.5885 4.36863 92.771 4.1865C92.9535 4.00436 93.201 3.90191 93.4591 3.90161H100.857C101.116 3.90191 101.363 4.00436 101.545 4.1865C101.728 4.36863 101.831 4.61558 101.831 4.87317V16.1432C101.831 16.4008 101.728 16.6477 101.545 16.8299C101.363 17.012 101.116 17.1145 100.857 17.1148Z" fill="white"/>
<path d="M86.45 37.7119H79.0516C78.7935 37.7116 78.5461 37.6092 78.3636 37.427C78.1811 37.2449 78.0784 36.998 78.0781 36.7404V25.4703C78.0784 25.2128 78.1811 24.9658 78.3636 24.7837C78.5461 24.6015 78.7935 24.4991 79.0516 24.4988H86.45C86.7081 24.4991 86.9555 24.6015 87.138 24.7837C87.3205 24.9658 87.4232 25.2128 87.4235 25.4703V36.7404C87.4232 36.998 87.3205 37.2449 87.138 37.427C86.9555 37.6092 86.7081 37.7116 86.45 37.7119Z" fill="white"/>
<path d="M100.857 37.7119H93.4591C93.201 37.7116 92.9535 37.6092 92.771 37.427C92.5885 37.2449 92.4859 36.998 92.4856 36.7404V25.4703C92.4859 25.2128 92.5885 24.9658 92.771 24.7837C92.9535 24.6015 93.201 24.4991 93.4591 24.4988H100.857C101.116 24.4991 101.363 24.6015 101.545 24.7837C101.728 24.9658 101.831 25.2128 101.831 25.4703V36.7404C101.831 36.998 101.728 37.2449 101.545 37.427C101.363 37.6092 101.116 37.7116 100.857 37.7119Z" fill="white"/>
<path d="M86.45 58.3089H79.0516C78.7935 58.3086 78.5461 58.2061 78.3636 58.024C78.1811 57.8418 78.0784 57.5949 78.0781 57.3373V46.0673C78.0784 45.8097 78.1811 45.5627 78.3636 45.3806C78.5461 45.1984 78.7935 45.096 79.0516 45.0957H86.45C86.7081 45.096 86.9555 45.1984 87.138 45.3806C87.3205 45.5627 87.4232 45.8097 87.4235 46.0673V57.3373C87.4232 57.5949 87.3205 57.8418 87.138 58.024C86.9555 58.2061 86.7081 58.3086 86.45 58.3089Z" fill="white"/>
<path d="M100.857 58.3089H93.4591C93.201 58.3086 92.9535 58.2061 92.771 58.024C92.5885 57.8418 92.4859 57.5949 92.4856 57.3373V46.0673C92.4859 45.8097 92.5885 45.5627 92.771 45.3806C92.9535 45.1984 93.201 45.096 93.4591 45.0957H100.857C101.116 45.096 101.363 45.1984 101.545 45.3806C101.728 45.5627 101.831 45.8097 101.831 46.0673V57.3373C101.831 57.5949 101.728 57.8418 101.545 58.024C101.363 58.2061 101.116 58.3086 100.857 58.3089Z" fill="white"/>
<path d="M86.45 78.9058H79.0516C78.7935 78.9055 78.5461 78.803 78.3636 78.6209C78.1811 78.4387 78.0784 78.1918 78.0781 77.9342V66.6642C78.0784 66.4066 78.1811 66.1596 78.3636 65.9775C78.5461 65.7954 78.7935 65.6929 79.0516 65.6926H86.45C86.7081 65.6929 86.9555 65.7954 87.138 65.9775C87.3205 66.1596 87.4232 66.4066 87.4235 66.6642V77.9342C87.4232 78.1918 87.3205 78.4387 87.138 78.6209C86.9555 78.803 86.7081 78.9055 86.45 78.9058Z" fill="white"/>
<path d="M100.857 78.9058H93.4591C93.201 78.9055 92.9535 78.803 92.771 78.6209C92.5885 78.4387 92.4859 78.1918 92.4856 77.9342V66.6642C92.4859 66.4066 92.5885 66.1596 92.771 65.9775C92.9535 65.7954 93.201 65.6929 93.4591 65.6926H100.857C101.116 65.6929 101.363 65.7954 101.545 65.9775C101.728 66.1596 101.831 66.4066 101.831 66.6642V77.9342C101.831 78.1918 101.728 78.4387 101.545 78.6209C101.363 78.803 101.116 78.9055 100.857 78.9058Z" fill="white"/>
<path d="M86.45 99.5027H79.0516C78.7935 99.5024 78.5461 99.3999 78.3636 99.2178C78.1811 99.0357 78.0784 98.7887 78.0781 98.5311V87.2611C78.0784 87.0035 78.1811 86.7566 78.3636 86.5744C78.5461 86.3923 78.7935 86.2898 79.0516 86.2896H86.45C86.7081 86.2898 86.9555 86.3923 87.138 86.5744C87.3205 86.7566 87.4232 87.0035 87.4235 87.2611V98.5311C87.4232 98.7887 87.3205 99.0357 87.138 99.2178C86.9555 99.3999 86.7081 99.5024 86.45 99.5027Z" fill="white"/>
<path d="M100.857 99.5027H93.4591C93.201 99.5024 92.9535 99.3999 92.771 99.2178C92.5885 99.0357 92.4859 98.7887 92.4856 98.5311V87.2611C92.4859 87.0035 92.5885 86.7566 92.771 86.5744C92.9535 86.3923 93.201 86.2898 93.4591 86.2896H100.857C101.116 86.2898 101.363 86.3923 101.545 86.5744C101.728 86.7566 101.831 87.0035 101.831 87.2611V98.5311C101.831 98.7887 101.728 99.0357 101.545 99.2178C101.363 99.3999 101.116 99.5024 100.857 99.5027Z" fill="white"/>
<path d="M261.286 57.143H255.055C254.591 57.1425 254.146 56.9581 253.817 56.6302C253.489 56.3024 253.304 55.8579 253.303 55.3942V47.2332C253.304 46.7695 253.489 46.325 253.817 45.9972C254.146 45.6693 254.591 45.4849 255.055 45.4844H261.286C261.75 45.4849 262.196 45.6693 262.524 45.9972C262.853 46.325 263.037 46.7695 263.038 47.2332V55.3942C263.037 55.8579 262.853 56.3024 262.524 56.6302C262.196 56.9581 261.75 57.1425 261.286 57.143Z" fill="#E6E6E6"/>
<path d="M313.853 123.597H281.923C281.046 123.596 280.205 123.248 279.584 122.629C278.964 122.01 278.615 121.17 278.614 120.294V58.5032C278.615 57.6275 278.964 56.7878 279.584 56.1685C280.205 55.5493 281.046 55.2009 281.923 55.2H313.853C314.731 55.2009 315.572 55.5493 316.193 56.1685C316.813 56.7878 317.162 57.6275 317.163 58.5032V120.294C317.162 121.17 316.813 122.01 316.193 122.629C315.572 123.248 314.731 123.596 313.853 123.597Z" fill="#E6E6E6"/>
<path d="M294.773 123.597H239.48C238.602 123.596 237.761 123.248 237.14 122.629C236.52 122.01 236.171 121.17 236.17 120.294V58.5032C236.171 57.6275 236.52 56.7878 237.14 56.1685C237.761 55.5493 238.602 55.2009 239.48 55.2H294.773C295.65 55.2009 296.492 55.5493 297.112 56.1685C297.733 56.7878 298.082 57.6275 298.083 58.5032V120.294C298.082 121.17 297.733 122.01 297.112 122.629C296.492 123.248 295.65 123.596 294.773 123.597Z" fill="#F2F2F2"/>
<path d="M255.445 57.143H249.215C248.75 57.1425 248.305 56.9581 247.976 56.6302C247.648 56.3024 247.463 55.8579 247.462 55.3942V47.2332C247.463 46.7695 247.648 46.325 247.976 45.9972C248.305 45.6693 248.75 45.4849 249.215 45.4844H255.445C255.909 45.4849 256.355 45.6693 256.683 45.9972C257.012 46.325 257.197 46.7695 257.197 47.2332V55.3942C257.197 55.8579 257.012 56.3024 256.683 56.6302C256.355 56.9581 255.909 57.1425 255.445 57.143Z" fill="#F2F2F2"/>
<path d="M263.622 85.7068H256.223C255.965 85.7065 255.718 85.604 255.535 85.4219C255.353 85.2398 255.25 84.9928 255.25 84.7352V73.4652C255.25 73.2076 255.353 72.9607 255.535 72.7785C255.718 72.5964 255.965 72.494 256.223 72.4937H263.622C263.88 72.494 264.127 72.5964 264.31 72.7785C264.492 72.9607 264.595 73.2076 264.595 73.4652V84.7352C264.595 84.9928 264.492 85.2398 264.31 85.4219C264.127 85.604 263.88 85.7065 263.622 85.7068Z" fill="white"/>
<path d="M278.029 85.7068H270.631C270.373 85.7065 270.125 85.604 269.943 85.4219C269.76 85.2398 269.658 84.9928 269.657 84.7352V73.4652C269.658 73.2076 269.76 72.9607 269.943 72.7785C270.125 72.5964 270.373 72.494 270.631 72.4937H278.029C278.287 72.494 278.535 72.5964 278.717 72.7785C278.9 72.9607 279.003 73.2076 279.003 73.4652V84.7352C279.003 84.9928 278.9 85.2398 278.717 85.4219C278.535 85.604 278.287 85.7065 278.029 85.7068Z" fill="white"/>
<path d="M263.622 106.304H256.223C255.965 106.303 255.718 106.201 255.535 106.019C255.353 105.837 255.25 105.59 255.25 105.332V94.0621C255.25 93.8046 255.353 93.5576 255.535 93.3755C255.718 93.1933 255.965 93.0909 256.223 93.0906H263.622C263.88 93.0909 264.127 93.1933 264.31 93.3755C264.492 93.5576 264.595 93.8046 264.595 94.0621V105.332C264.595 105.59 264.492 105.837 264.31 106.019C264.127 106.201 263.88 106.303 263.622 106.304Z" fill="white"/>
<path d="M278.029 106.304H270.631C270.373 106.303 270.125 106.201 269.943 106.019C269.76 105.837 269.658 105.59 269.657 105.332V94.0621C269.658 93.8046 269.76 93.5576 269.943 93.3755C270.125 93.1933 270.373 93.0909 270.631 93.0906H278.029C278.287 93.0909 278.535 93.1933 278.717 93.3755C278.9 93.5576 279.003 93.8046 279.003 94.0621V105.332C279.003 105.59 278.9 105.837 278.717 106.019C278.535 106.201 278.287 106.303 278.029 106.304Z" fill="white"/>
<path d="M397.572 123.792H-9.64943C-9.7527 123.792 -9.85174 123.751 -9.92477 123.678C-9.99779 123.605 -10.0388 123.506 -10.0388 123.403C-10.0388 123.3 -9.99779 123.201 -9.92477 123.128C-9.85174 123.055 -9.7527 123.014 -9.64943 123.014H397.572C397.675 123.014 397.774 123.055 397.847 123.128C397.92 123.201 397.961 123.3 397.961 123.403C397.961 123.506 397.92 123.605 397.847 123.678C397.774 123.751 397.675 123.792 397.572 123.792Z" fill="#E6E6E6"/>
<path d="M131.23 137.393H95.0166C94.9133 137.393 94.8143 137.353 94.7412 137.28C94.6682 137.207 94.6272 137.108 94.6272 137.005C94.6272 136.902 94.6682 136.803 94.7412 136.73C94.8143 136.657 94.9133 136.616 95.0166 136.616H131.23C131.333 136.616 131.432 136.657 131.505 136.73C131.578 136.803 131.619 136.902 131.619 137.005C131.619 137.108 131.578 137.207 131.505 137.28C131.432 137.353 131.333 137.393 131.23 137.393Z" fill="#E6E6E6"/>
<path d="M221.179 137.393H184.965C184.862 137.393 184.763 137.353 184.69 137.28C184.617 137.207 184.576 137.108 184.576 137.005C184.576 136.902 184.617 136.803 184.69 136.73C184.763 136.657 184.862 136.616 184.965 136.616H221.179C221.282 136.616 221.381 136.657 221.454 136.73C221.527 136.803 221.568 136.902 221.568 137.005C221.568 137.108 221.527 137.207 221.454 137.28C221.381 137.353 221.282 137.393 221.179 137.393Z" fill="#E6E6E6"/>
<path d="M311.127 137.393H274.914C274.811 137.393 274.712 137.353 274.639 137.28C274.566 137.207 274.525 137.108 274.525 137.005C274.525 136.902 274.566 136.803 274.639 136.73C274.712 136.657 274.811 136.616 274.914 136.616H311.127C311.231 136.616 311.33 136.657 311.403 136.73C311.476 136.803 311.517 136.902 311.517 137.005C311.517 137.108 311.476 137.207 311.403 137.28C311.33 137.353 311.231 137.393 311.127 137.393Z" fill="#E6E6E6"/>
<path d="M151.867 95.5771C151.867 88.7136 146.289 72.4268 139.407 72.4268C132.525 72.4268 126.947 88.7136 126.947 95.5771C126.947 98.8753 128.259 102.038 130.596 104.371C132.933 106.703 136.102 108.013 139.407 108.013C142.712 108.013 145.881 106.703 148.218 104.371C150.555 102.038 151.867 98.8753 151.867 95.5771H151.867Z" fill="#E6E6E6"/>
<path d="M148.752 95.5771C148.752 88.7136 143.173 72.4268 136.292 72.4268C129.41 72.4268 123.831 88.7136 123.831 95.5771C123.831 98.8753 125.144 102.038 127.481 104.371C129.818 106.703 132.987 108.013 136.292 108.013C139.596 108.013 142.766 106.703 145.103 104.371C147.439 102.038 148.752 98.8753 148.752 95.5771Z" fill="#F2F2F2"/>
<path d="M136.681 123.383C136.578 123.383 136.479 123.342 136.406 123.269C136.333 123.196 136.292 123.098 136.292 122.995V88.3525C136.292 88.2494 136.333 88.1506 136.406 88.0777C136.479 88.0048 136.578 87.9639 136.681 87.9639C136.784 87.9639 136.883 88.0048 136.956 88.0777C137.029 88.1506 137.071 88.2494 137.071 88.3525V122.995C137.071 123.098 137.029 123.196 136.956 123.269C136.883 123.342 136.784 123.383 136.681 123.383Z" fill="#CCCCCC"/>
<path d="M136.681 94.0315C136.604 94.0315 136.529 94.0087 136.465 93.966C136.401 93.9233 136.351 93.8626 136.321 93.7916C136.292 93.7206 136.284 93.6425 136.299 93.5671C136.314 93.4917 136.351 93.4225 136.406 93.3682L141.498 88.2857C141.571 88.2128 141.67 88.1719 141.773 88.1719C141.877 88.1719 141.976 88.2128 142.049 88.2857C142.122 88.3586 142.163 88.4574 142.163 88.5605C142.163 88.6635 142.122 88.7624 142.049 88.8352L136.956 93.9177C136.92 93.9538 136.877 93.9825 136.83 94.002C136.783 94.0216 136.732 94.0316 136.681 94.0315Z" fill="#CCCCCC"/>
<path d="M350.845 95.5771C350.845 88.7136 345.266 72.4268 338.385 72.4268C331.503 72.4268 325.924 88.7136 325.924 95.5771C325.924 98.8753 327.237 102.038 329.574 104.371C331.91 106.703 335.08 108.013 338.385 108.013C341.689 108.013 344.859 106.703 347.195 104.371C349.532 102.038 350.845 98.8753 350.845 95.5771H350.845Z" fill="#E6E6E6"/>
<path d="M347.73 95.5771C347.73 88.7136 342.151 72.4268 335.27 72.4268C328.388 72.4268 322.809 88.7136 322.809 95.5771C322.809 98.8753 324.122 102.038 326.459 104.371C328.795 106.703 331.965 108.013 335.27 108.013C338.574 108.013 341.744 106.703 344.08 104.371C346.417 102.038 347.73 98.8753 347.73 95.5771H347.73Z" fill="#F2F2F2"/>
<path d="M335.659 123.383C335.556 123.383 335.457 123.342 335.384 123.269C335.311 123.196 335.27 123.098 335.27 122.995V88.3525C335.27 88.2494 335.311 88.1506 335.384 88.0777C335.457 88.0048 335.556 87.9639 335.659 87.9639C335.762 87.9639 335.861 88.0048 335.934 88.0777C336.007 88.1506 336.048 88.2494 336.048 88.3525V122.995C336.048 123.098 336.007 123.196 335.934 123.269C335.861 123.342 335.762 123.383 335.659 123.383Z" fill="#CCCCCC"/>
<path d="M335.659 94.0315C335.582 94.0315 335.507 94.0087 335.443 93.966C335.379 93.9233 335.329 93.8626 335.299 93.7916C335.27 93.7206 335.262 93.6425 335.277 93.5671C335.292 93.4917 335.329 93.4225 335.384 93.3682L340.476 88.2857C340.549 88.2128 340.648 88.1719 340.751 88.1719C340.854 88.1719 340.953 88.2128 341.026 88.2857C341.099 88.3586 341.141 88.4574 341.141 88.5605C341.141 88.6635 341.099 88.7624 341.026 88.8352L335.934 93.9177C335.898 93.9538 335.855 93.9825 335.808 94.002C335.761 94.0216 335.71 94.0316 335.659 94.0315Z" fill="#CCCCCC"/>
<path d="M206.771 99.8915H198.204C197.946 99.8912 197.699 99.7888 197.516 99.6066C197.334 99.4245 197.231 99.1775 197.231 98.9199V90.3702C197.231 90.1126 197.334 89.8657 197.516 89.6835C197.699 89.5014 197.946 89.3989 198.204 89.3987H206.771C207.029 89.3989 207.277 89.5014 207.459 89.6835C207.642 89.8657 207.744 90.1126 207.744 90.3702V98.9199C207.744 99.1775 207.642 99.4245 207.459 99.6066C207.277 99.7888 207.029 99.8912 206.771 99.8915Z" fill="#3F3D56"/>
<path d="M289.931 104.055C290.025 104.079 290.112 104.124 290.186 104.186C290.261 104.248 290.321 104.325 290.362 104.412C290.403 104.5 290.425 104.595 290.425 104.691C290.425 104.788 290.405 104.884 290.364 104.971L292.057 106.601L290.864 106.868L289.439 105.279C289.296 105.201 289.187 105.074 289.132 104.921C289.077 104.768 289.08 104.6 289.14 104.449C289.201 104.298 289.315 104.175 289.461 104.102C289.606 104.029 289.774 104.013 289.931 104.055H289.931Z" fill="#FFB8B8"/>
<path d="M292.312 108.342L290.223 106.386C290.195 106.359 290.171 106.326 290.155 106.29C290.139 106.254 290.131 106.215 290.13 106.176C290.129 106.137 290.136 106.097 290.151 106.061C290.166 106.024 290.188 105.991 290.215 105.963L290.642 105.532C290.693 105.48 290.76 105.449 290.832 105.444C290.904 105.439 290.975 105.461 291.032 105.504L292.783 106.839L293.875 104.196C293.918 104.092 293.982 103.998 294.063 103.919C294.144 103.84 294.24 103.779 294.346 103.739C294.452 103.699 294.565 103.681 294.678 103.687C294.79 103.692 294.901 103.72 295.003 103.77C295.163 103.847 295.293 103.974 295.375 104.132C295.456 104.289 295.484 104.469 295.455 104.644C295.257 105.846 294.056 107.436 293.358 108.276C293.263 108.391 293.134 108.473 292.99 108.512C292.846 108.55 292.694 108.543 292.554 108.492C292.464 108.458 292.382 108.407 292.312 108.342Z" fill="#6C63FF"/>
<path d="M291.14 106.445L289.603 104.219C289.583 104.19 289.575 104.155 289.582 104.12C289.588 104.086 289.607 104.056 289.636 104.036L289.698 103.993C289.712 103.984 289.728 103.977 289.745 103.973C289.762 103.97 289.78 103.969 289.797 103.972C289.814 103.976 289.83 103.982 289.844 103.991C289.859 104.001 289.871 104.013 289.881 104.027L291.419 106.253C291.429 106.267 291.436 106.283 291.439 106.3C291.443 106.317 291.443 106.334 291.44 106.351C291.437 106.368 291.43 106.385 291.421 106.399C291.412 106.413 291.399 106.426 291.385 106.436L291.323 106.478C291.295 106.498 291.259 106.506 291.225 106.499C291.191 106.493 291.16 106.473 291.14 106.445Z" fill="white"/>
<path d="M290.71 106.461L289.434 104.614C289.38 104.535 289.359 104.438 289.376 104.343C289.394 104.249 289.448 104.166 289.527 104.111L289.657 104.022L291.344 106.464L291.214 106.554C291.135 106.608 291.037 106.629 290.943 106.611C290.849 106.594 290.765 106.54 290.71 106.461Z" fill="#3F3D56"/>
<path d="M290.865 122.406L290.063 122.314L290.169 119.199L291.221 119.32L290.865 122.406Z" fill="#FFB8B8"/>
<path d="M290.979 123.206L288.395 122.908L288.398 122.875C288.414 122.743 288.455 122.616 288.519 122.5C288.584 122.384 288.671 122.282 288.775 122.199C288.879 122.117 288.999 122.055 289.127 122.019C289.255 121.983 289.388 121.972 289.52 121.987H289.521L291.099 122.169L290.979 123.206Z" fill="#2F2E41"/>
<path d="M300.186 121.815L299.415 122.053L298.13 119.198L299.268 118.847L300.186 121.815Z" fill="#FFB8B8"/>
<path d="M300.614 122.5L298.128 123.266L298.118 123.235C298.079 123.108 298.065 122.975 298.077 122.843C298.09 122.711 298.128 122.582 298.19 122.465C298.252 122.347 298.337 122.243 298.439 122.159C298.542 122.074 298.66 122.01 298.787 121.971H298.787L300.305 121.503L300.614 122.5Z" fill="#2F2E41"/>
<path d="M289.97 121.688C289.888 121.663 289.82 121.608 289.779 121.533C289.738 121.458 289.728 121.371 289.75 121.289L290.233 115.737C290.256 115.484 290.336 115.239 290.467 115.021L293.392 110.177L296.009 110.646L296.026 110.653C297.298 111.43 298.428 115.201 299.52 118.847C299.69 119.414 299.866 120.001 300.037 120.561C300.069 120.641 300.068 120.73 300.035 120.81C300.002 120.889 299.939 120.953 299.859 120.986L299.067 121.319C298.992 121.351 298.908 121.354 298.831 121.327C298.754 121.3 298.689 121.246 298.65 121.174L294.576 113.73C294.571 113.72 294.564 113.712 294.555 113.706C294.546 113.7 294.536 113.697 294.525 113.696C294.515 113.694 294.504 113.696 294.494 113.699C294.484 113.703 294.476 113.709 294.469 113.718L292.104 116.388L291.235 121.477L291.232 121.488C291.2 121.561 291.144 121.62 291.072 121.654C291.001 121.689 290.919 121.696 290.843 121.675L289.99 121.691L289.985 121.691L289.97 121.688Z" fill="#2F2E41"/>
<path d="M293.25 110.707L293.234 110.702L293.229 110.685C293.216 110.645 292.02 106.604 293.098 104.028L293.099 104.026C293.131 103.965 293.883 102.523 294.757 102.378L294.78 102.375L295.064 102.905C295.153 102.994 296.691 104.587 295.993 107.325C296.056 107.55 296.904 110.633 296.443 111.093C296.275 111.209 296.07 111.261 295.867 111.238C294.977 111.162 294.099 110.984 293.25 110.707Z" fill="#8BC83F"/>
<path d="M294.577 101.873C295.704 101.873 296.617 100.962 296.617 99.837C296.617 98.7123 295.704 97.8005 294.577 97.8005C293.45 97.8005 292.536 98.7123 292.536 99.837C292.536 100.962 293.45 101.873 294.577 101.873Z" fill="#2F2E41"/>
<path d="M293.766 101.864C294.659 101.864 295.383 101.141 295.383 100.25C295.383 99.3591 294.659 98.6367 293.766 98.6367C292.873 98.6367 292.149 99.3591 292.149 100.25C292.149 101.141 292.873 101.864 293.766 101.864Z" fill="#FFB8B8"/>
<path d="M294.806 101.817C294.659 101.87 294.478 101.916 294.362 101.807C294.314 101.745 294.285 101.669 294.281 101.591C294.276 101.512 294.295 101.434 294.336 101.366C294.42 101.233 294.488 101.091 294.538 100.942C294.553 100.83 294.539 100.716 294.497 100.612C294.455 100.507 294.386 100.415 294.298 100.344C294.123 100.211 293.924 100.111 293.712 100.05L292.581 99.6487C292.287 99.5795 292.025 99.4107 291.842 99.1711C291.747 98.9714 291.731 98.7437 291.796 98.5327C291.862 98.3217 292.004 98.1427 292.195 98.0309C292.387 97.9341 292.598 97.8817 292.813 97.8775C293.029 97.8732 293.242 97.9173 293.438 98.0065C293.654 98.1069 293.875 98.1952 294.101 98.2711C294.554 98.3904 295.069 98.2834 295.467 98.5384C295.635 98.6656 295.769 98.8328 295.855 99.0247C295.942 99.2166 295.979 99.4271 295.963 99.637C295.929 100.059 295.816 100.471 295.63 100.852C295.544 101.087 295.419 101.305 295.261 101.499C295.184 101.594 295.084 101.668 294.972 101.717C294.859 101.765 294.737 101.786 294.615 101.777L294.806 101.817Z" fill="#2F2E41"/>
<path d="M296.288 100.165C297.015 100.165 297.604 99.5773 297.604 98.8517C297.604 98.1261 297.015 97.5378 296.288 97.5378C295.561 97.5378 294.971 98.1261 294.971 98.8517C294.971 99.5773 295.561 100.165 296.288 100.165Z" fill="#2F2E41"/>
<path d="M294.116 100.757C294.116 100.733 294.122 100.709 294.134 100.689C294.147 100.668 294.164 100.652 294.185 100.64C294.207 100.629 294.23 100.624 294.254 100.625C294.278 100.626 294.301 100.634 294.321 100.647C294.341 100.661 294.357 100.679 294.367 100.701C294.377 100.722 294.381 100.746 294.378 100.77C294.376 100.794 294.367 100.816 294.353 100.835C294.338 100.854 294.319 100.869 294.297 100.878V101.167C294.297 101.174 294.296 101.18 294.293 101.186C294.291 101.192 294.287 101.198 294.282 101.202C294.278 101.207 294.272 101.211 294.266 101.213C294.26 101.216 294.254 101.217 294.247 101.217C294.241 101.217 294.234 101.216 294.228 101.213C294.222 101.211 294.217 101.207 294.212 101.202C294.208 101.198 294.204 101.192 294.202 101.186C294.199 101.18 294.198 101.174 294.198 101.167V100.878C294.174 100.868 294.153 100.852 294.138 100.83C294.124 100.808 294.116 100.783 294.116 100.757Z" fill="white"/>
<path d="M290.011 105.434C290.108 105.424 290.205 105.436 290.296 105.468C290.387 105.5 290.471 105.551 290.54 105.619C290.609 105.687 290.662 105.768 290.696 105.859C290.731 105.949 290.744 106.046 290.737 106.142L292.893 107.081L291.868 107.746L289.978 106.753C289.817 106.729 289.67 106.648 289.564 106.524C289.459 106.399 289.404 106.241 289.408 106.078C289.412 105.916 289.476 105.76 289.587 105.642C289.698 105.523 289.849 105.449 290.011 105.434Z" fill="#FFB8B8"/>
<path d="M293.74 108.624L291.1 107.517C291.063 107.502 291.03 107.479 291.002 107.451C290.975 107.423 290.953 107.39 290.939 107.353C290.924 107.316 290.917 107.277 290.918 107.237C290.919 107.198 290.928 107.159 290.944 107.123L291.193 106.571C291.223 106.505 291.275 106.453 291.341 106.423C291.407 106.393 291.481 106.389 291.55 106.409L293.657 107.052L293.757 104.195C293.761 104.082 293.788 103.971 293.837 103.869C293.885 103.767 293.954 103.677 294.039 103.602C294.125 103.528 294.224 103.472 294.332 103.438C294.439 103.403 294.553 103.392 294.665 103.403C294.842 103.42 295.009 103.493 295.141 103.613C295.272 103.732 295.361 103.891 295.395 104.065C295.629 105.261 295.059 107.168 294.698 108.198C294.649 108.339 294.557 108.461 294.435 108.547C294.314 108.633 294.168 108.68 294.019 108.68C293.923 108.68 293.828 108.661 293.74 108.624Z" fill="#8BC83F"/>
<path d="M22.9785 107.947H18.9343V106.722C20.2123 105.835 21.3445 105.912 22.8341 106.794L22.9785 107.947Z" fill="#6C63FF"/>
<path d="M17.9981 129.711H17.1126L16.9802 126.303H17.9981V129.711Z" fill="#FFB8B8"/>
<path d="M18.2237 130.568L15.3689 130.568V130.532C15.3689 130.386 15.3976 130.242 15.4535 130.107C15.5093 129.973 15.5912 129.85 15.6943 129.747C15.7975 129.644 15.92 129.563 16.0548 129.507C16.1897 129.451 16.3342 129.423 16.4801 129.423H16.4801L18.2237 129.423L18.2237 130.568Z" fill="#2F2E41"/>
<path d="M22.9848 129.711H23.8698L24.0022 126.303H22.9844L22.9848 129.711Z" fill="#FFB8B8"/>
<path d="M22.759 129.423L24.5026 129.423H24.5027C24.6486 129.423 24.7931 129.451 24.9279 129.507C25.0627 129.563 25.1852 129.644 25.2884 129.747C25.3916 129.85 25.4735 129.973 25.5293 130.107C25.5851 130.242 25.6139 130.386 25.6139 130.532V130.568L22.7591 130.568L22.759 129.423Z" fill="#2F2E41"/>
<path d="M23.0081 129.274C22.9342 129.274 22.8626 129.249 22.805 129.203C22.7473 129.157 22.7071 129.092 22.6907 129.02L20.4963 119.468C20.4915 119.443 20.4782 119.422 20.4589 119.406C20.4396 119.391 20.4154 119.382 20.3906 119.383H20.39C20.3651 119.383 20.3409 119.391 20.3216 119.407C20.3023 119.422 20.2892 119.444 20.2846 119.469L18.2694 128.957C18.2537 129.03 18.2136 129.095 18.1558 129.141C18.0979 129.188 18.0259 129.214 17.9514 129.214H16.9915C16.9472 129.214 16.9034 129.205 16.8627 129.188C16.822 129.17 16.7854 129.144 16.755 129.112C16.7246 129.08 16.7012 129.042 16.686 129.001C16.6709 128.959 16.6645 128.915 16.6671 128.871L17.3821 116.844L17.6698 116.76L17.6752 116.76L23.3268 116.809L24.5305 128.822C24.5347 128.865 24.5303 128.908 24.5176 128.949C24.5049 128.99 24.484 129.028 24.4564 129.061C24.4287 129.094 24.3947 129.122 24.3564 129.141C24.3181 129.161 24.2762 129.173 24.2332 129.177L23.0341 129.273C23.0254 129.274 23.0167 129.274 23.0081 129.274Z" fill="#2F2E41"/>
<path d="M20.6741 105.751C21.6537 105.751 22.4479 104.959 22.4479 103.981C22.4479 103.004 21.6537 102.211 20.6741 102.211C19.6945 102.211 18.9004 103.004 18.9004 103.981C18.9004 104.959 19.6945 105.751 20.6741 105.751Z" fill="#FFB8B8"/>
<path d="M19.5875 118.163C19.2763 118.167 18.9664 118.123 18.6683 118.034C18.4033 117.954 18.1573 117.821 17.9457 117.643C17.7341 117.465 17.5613 117.245 17.4379 116.998C17.3987 116.924 17.3901 116.837 17.4137 116.756C17.6093 116.09 18.5546 112.626 17.9515 109.873C17.8663 109.49 17.8592 109.095 17.9306 108.709C18.0021 108.324 18.1505 107.957 18.3671 107.63C18.5786 107.306 18.8534 107.028 19.1751 106.812C19.4968 106.596 19.8588 106.447 20.2395 106.373V106.373C20.3395 106.354 20.4401 106.338 20.5384 106.326C20.9592 106.274 21.3862 106.316 21.7889 106.448C22.1917 106.58 22.5601 106.8 22.868 107.091C23.1849 107.387 23.4323 107.75 23.5923 108.153C23.7523 108.557 23.821 108.99 23.7935 109.423L23.3299 116.847C23.3268 116.903 23.3091 116.957 23.2787 117.003C23.2484 117.05 23.2064 117.088 23.1568 117.114C22.6229 117.393 21.0192 118.163 19.5875 118.163Z" fill="#3F3D56"/>
<path d="M22.6779 102.678C22.4937 102.216 22.1562 101.831 21.7218 101.587C21.2874 101.344 20.7823 101.256 20.291 101.339L20.8502 101.79C20.1554 101.813 19.424 101.764 18.9278 102.25C19.0858 102.245 19.2928 102.582 19.4507 102.578C19.3029 102.588 19.1606 102.638 19.0386 102.722C18.9166 102.806 18.8195 102.921 18.7572 103.055C18.6364 103.327 18.6082 103.631 18.6768 103.92C18.8558 104.346 19.0639 104.758 19.2997 105.156C19.2792 104.451 20.6682 102.772 21.3465 102.947C21.0019 103.075 20.7029 103.301 20.4871 103.598C20.9486 103.366 21.4705 103.281 21.9821 103.354C22.0989 103.381 22.2194 103.388 22.3385 103.374C22.4115 103.36 22.4795 103.327 22.5362 103.279C22.5928 103.23 22.6361 103.169 22.662 103.099C22.6879 103.029 22.6954 102.954 22.684 102.881C22.6725 102.808 22.6424 102.738 22.5965 102.68L22.6779 102.678Z" fill="#2F2E41"/>
<path d="M19.4653 117.717C19.4205 117.717 19.3762 117.708 19.3352 117.69L15.9698 116.224C15.8983 116.193 15.8403 116.138 15.8064 116.068C15.7725 115.998 15.7651 115.918 15.7854 115.843L18.0133 107.444C18.0547 107.288 18.127 107.141 18.2258 107.013C18.3246 106.885 18.4481 106.778 18.5889 106.698C18.7297 106.618 18.8851 106.567 19.0459 106.548C19.2068 106.528 19.3698 106.541 19.5256 106.586L20.4164 106.84L19.7893 117.412C19.7861 117.464 19.7703 117.514 19.7433 117.559C19.7164 117.604 19.679 117.642 19.6343 117.669C19.5835 117.7 19.525 117.717 19.4653 117.717Z" fill="#1F4C6B"/>
<path d="M25.6938 115.843L25.5458 115.286L25.3313 114.476L25.228 114.088L25.0135 113.28L23.4659 107.444C23.4246 107.287 23.3525 107.141 23.2537 107.013C23.1549 106.884 23.0314 106.777 22.8905 106.697C22.7497 106.618 22.5942 106.566 22.4334 106.547C22.2725 106.528 22.1094 106.541 21.9537 106.586L21.0632 106.84L21.5045 114.276L21.55 115.052L21.5789 115.541V115.542L21.6251 116.314L21.6901 117.412C21.6954 117.494 21.7318 117.571 21.792 117.628C21.8521 117.685 21.9316 117.717 22.0143 117.717C22.0591 117.717 22.1033 117.708 22.1443 117.69L25.5097 116.224C25.5812 116.193 25.6392 116.138 25.6731 116.068C25.7069 115.998 25.7143 115.918 25.6938 115.843Z" fill="#1F4C6B"/>
<path d="M25.2281 114.088L21.55 115.052L21.5044 114.276L25.0136 113.28L25.2281 114.088Z" fill="#CCCCCC"/>
<path d="M25.546 115.286L21.6252 116.314L21.5789 115.542V115.541L25.3314 114.476L25.546 115.286Z" fill="#CCCCCC"/>
<path d="M19.9297 114.443L19.8842 115.205L16.2769 114.132L16.4883 113.335L19.9297 114.443Z" fill="#CCCCCC"/>
<path d="M19.8546 115.706L16.1737 114.521L15.9619 115.32L19.8099 116.464L19.8546 115.706Z" fill="#CCCCCC"/>
<path d="M16.2377 116.503C16.3475 116.475 16.4496 116.422 16.5369 116.35C16.6242 116.278 16.6946 116.187 16.7431 116.085C16.7916 115.983 16.817 115.871 16.8176 115.758C16.8182 115.645 16.7939 115.533 16.7464 115.43L18.4769 110.008L17.2498 109.751L15.6633 115.067C15.4955 115.158 15.367 115.308 15.3022 115.487C15.2374 115.666 15.2407 115.863 15.3115 116.04C15.3823 116.217 15.5157 116.362 15.6864 116.447C15.8571 116.533 16.0533 116.552 16.2377 116.503V116.503Z" fill="#FFB8B8"/>
<path d="M18.5248 107.343C18.8771 107.378 19.0753 107.774 18.9877 108.266L18.5673 110.629C18.5358 110.806 18.3898 110.946 18.2684 110.916L16.8464 110.561C16.737 110.534 16.6967 110.378 16.7587 110.223L17.6123 108.086C17.6701 107.884 17.7885 107.704 17.9517 107.571C18.1148 107.438 18.3148 107.359 18.5248 107.343Z" fill="#234F68"/>
<path d="M20.6677 100.668C21.268 100.668 21.8447 100.901 22.2757 101.318C22.7067 101.735 22.9581 102.303 22.9768 102.902H23.4119C23.4502 102.902 23.487 102.918 23.514 102.945C23.5411 102.972 23.5564 103.008 23.5564 103.046V103.623C23.5564 103.661 23.5411 103.698 23.514 103.725C23.487 103.752 23.4502 103.767 23.4119 103.767H18.5011C18.4628 103.767 18.4261 103.752 18.399 103.725C18.3719 103.698 18.3567 103.661 18.3567 103.623V102.974C18.3567 102.672 18.4165 102.372 18.5326 102.092C18.6487 101.812 18.819 101.558 19.0336 101.344C19.2481 101.129 19.5029 100.959 19.7833 100.844C20.0637 100.728 20.3642 100.668 20.6677 100.668Z" fill="#1F4C6B"/>
<path d="M20.9437 114.925H19.9229C19.8901 114.925 19.8585 114.913 19.8342 114.891C19.81 114.869 19.7948 114.839 19.7917 114.806L19.5874 112.716H21.2792L21.0749 114.806C21.0718 114.839 21.0566 114.869 21.0324 114.891C21.0081 114.913 20.9765 114.925 20.9437 114.925Z" fill="#E6E6E6"/>
<path d="M21.2764 112.979H19.59C19.5551 112.979 19.5216 112.965 19.4969 112.94C19.4722 112.915 19.4583 112.882 19.4583 112.847V112.532C19.4583 112.497 19.4722 112.463 19.4969 112.439C19.5216 112.414 19.5551 112.4 19.59 112.4H21.2764C21.3113 112.4 21.3448 112.414 21.3695 112.439C21.3942 112.463 21.4081 112.497 21.4081 112.532V112.847C21.4081 112.882 21.3942 112.915 21.3695 112.94C21.3448 112.965 21.3113 112.979 21.2764 112.979Z" fill="#CCCCCC"/>
<path d="M20.4552 113.804C20.4949 113.808 20.5342 113.816 20.5727 113.827L23.2914 111.5L23.1325 110.646L24.3921 110.238L24.8207 111.722C24.8553 111.842 24.85 111.97 24.8056 112.087C24.7612 112.203 24.6801 112.303 24.5744 112.369L21.1313 114.544C21.1337 114.697 21.0892 114.848 21.0038 114.976C20.9183 115.104 20.7959 115.203 20.6527 115.259C20.5096 115.316 20.3527 115.328 20.2027 115.293C20.0527 115.258 19.9168 115.179 19.8131 115.066C19.7094 114.952 19.6428 114.81 19.6221 114.657C19.6014 114.505 19.6277 114.35 19.6974 114.213C19.7671 114.076 19.877 113.964 20.0123 113.891C20.1477 113.817 20.3022 113.787 20.4552 113.804H20.4552Z" fill="#FFB8B8"/>
<path d="M23.2985 107.538C23.6749 107.432 24.0509 107.718 24.177 108.205L24.7817 110.543C24.827 110.718 24.739 110.904 24.6015 110.924L22.9905 111.155C22.8666 111.173 22.7573 111.046 22.7528 110.879L22.6902 108.579C22.6663 108.363 22.7125 108.146 22.822 107.958C22.9316 107.77 23.0986 107.623 23.2985 107.538Z" fill="#1F4C6B"/>
<path d="M41.6095 113.861H40.383C40.3437 113.861 40.3057 113.847 40.2765 113.82C40.2474 113.794 40.2292 113.758 40.2255 113.719L39.98 111.207H42.0126L41.7671 113.719C41.7634 113.758 41.7452 113.794 41.716 113.82C41.6869 113.847 41.6489 113.861 41.6095 113.861Z" fill="#E6E6E6"/>
<path d="M42.0093 111.523H39.9832C39.9413 111.523 39.901 111.506 39.8714 111.477C39.8417 111.447 39.825 111.407 39.825 111.365V110.986C39.825 110.944 39.8417 110.904 39.8714 110.874C39.901 110.845 39.9413 110.828 39.9832 110.828H42.0093C42.0513 110.828 42.0915 110.845 42.1212 110.874C42.1509 110.904 42.1675 110.944 42.1676 110.986V111.365C42.1675 111.407 42.1509 111.447 42.1212 111.477C42.0915 111.506 42.0513 111.523 42.0093 111.523Z" fill="#CCCCCC"/>
<path d="M53.6592 128.609C52.7681 127.426 52.0637 126.114 51.5703 124.719C51.5418 124.635 51.5438 124.544 51.5761 124.462C51.6084 124.38 51.6688 124.312 51.7466 124.27L54.796 122.639C54.8453 122.613 54.9001 122.598 54.9561 122.596C55.0121 122.593 55.0679 122.604 55.1192 122.626C55.1715 122.649 55.2179 122.683 55.255 122.727C55.292 122.77 55.3186 122.821 55.3328 122.876C55.6877 124.221 56.3549 125.464 57.2803 126.504C57.3184 126.546 57.3463 126.596 57.3619 126.651C57.3775 126.706 57.3804 126.763 57.3704 126.819C57.3607 126.874 57.3386 126.927 57.3057 126.972C57.2728 127.017 57.2299 127.054 57.1804 127.081L54.131 128.711C54.053 128.753 53.9628 128.765 53.8764 128.747C53.79 128.728 53.7131 128.679 53.6592 128.609Z" fill="#CCCCCC"/>
<path d="M53.8674 128.453C53.8838 128.474 53.9068 128.488 53.9325 128.493C53.9582 128.498 53.985 128.495 54.0081 128.482L57.0575 126.852C57.0723 126.844 57.0852 126.833 57.095 126.819C57.1048 126.806 57.1114 126.79 57.1142 126.774C57.1173 126.757 57.1164 126.739 57.1115 126.722C57.1067 126.705 57.0979 126.689 57.086 126.676C56.1333 125.606 55.4465 124.326 55.0811 122.942C55.0769 122.925 55.0687 122.909 55.0573 122.895C55.0459 122.882 55.0315 122.871 55.0153 122.864C55 122.858 54.9834 122.854 54.9667 122.855C54.95 122.856 54.9336 122.86 54.919 122.868L51.8696 124.499C51.8465 124.512 51.8285 124.532 51.8187 124.556C51.8089 124.58 51.8079 124.607 51.8159 124.632C52.3004 126.003 52.9922 127.292 53.8674 128.453Z" fill="white"/>
<path d="M54.9962 124.967L53.3354 125.698C53.2722 125.726 53.2006 125.728 53.1362 125.703C53.0719 125.678 53.02 125.629 52.9921 125.566L52.951 125.473C52.9232 125.41 52.9216 125.338 52.9466 125.274C52.9715 125.21 53.0209 125.158 53.084 125.13L54.7449 124.398C54.808 124.371 54.8796 124.369 54.944 124.394C55.0083 124.419 55.0602 124.468 55.0881 124.531L55.1292 124.624C55.157 124.687 55.1586 124.759 55.1336 124.823C55.1087 124.887 55.0593 124.939 54.9962 124.967Z" fill="#CCCCCC"/>
<path d="M55.6036 126.092L53.9428 126.824C53.8796 126.852 53.808 126.853 53.7436 126.829C53.6793 126.804 53.6275 126.754 53.5995 126.691L53.5585 126.599C53.5307 126.535 53.529 126.464 53.554 126.4C53.5789 126.336 53.6284 126.284 53.6915 126.256L55.3523 125.524C55.4154 125.496 55.4871 125.495 55.5514 125.52C55.6158 125.545 55.6676 125.594 55.6955 125.657L55.7366 125.75C55.7644 125.813 55.766 125.884 55.7411 125.949C55.7161 126.013 55.6667 126.065 55.6036 126.092Z" fill="#CCCCCC"/>
<path d="M51.7084 125.154C51.5938 125.081 51.4968 124.983 51.4241 124.868C51.3515 124.753 51.305 124.623 51.2879 124.488C51.2709 124.353 51.2837 124.216 51.3254 124.087C51.3671 123.958 51.4368 123.839 51.5295 123.739L50.8291 113.819L52.8466 114.014L52.9021 123.729C53.0595 123.896 53.1503 124.114 53.1572 124.343C53.1641 124.572 53.0867 124.795 52.9396 124.971C52.7924 125.147 52.5858 125.262 52.3589 125.296C52.132 125.33 51.9006 125.279 51.7084 125.154Z" fill="#A0616A"/>
<path d="M51.2858 117.152C51.2386 117.118 51.1996 117.074 51.1716 117.023C51.1437 116.972 51.1276 116.916 51.1246 116.858L50.9767 114.184C50.9621 113.919 51.0463 113.658 51.213 113.452C51.3797 113.245 51.6171 113.107 51.8796 113.065C52.142 113.023 52.4108 113.079 52.6341 113.223C52.8575 113.367 53.0196 113.588 53.0891 113.844L53.7385 116.235C53.7655 116.334 53.7517 116.441 53.7003 116.53C53.6488 116.62 53.5638 116.686 53.4639 116.713L51.6166 117.213C51.5605 117.228 51.5016 117.23 51.4444 117.22C51.3871 117.21 51.3329 117.186 51.2858 117.152Z" fill="#3F3D56"/>
<path d="M47.847 137.35L46.7836 137.35L46.2773 133.255H47.8474L47.847 137.35Z" fill="#A0616A"/>
<path d="M45.786 137.047H48.0751V138.336H44.7319V138.099C44.7319 137.961 44.7592 137.824 44.8122 137.696C44.8651 137.569 44.9428 137.453 45.0407 137.355C45.1386 137.257 45.2548 137.18 45.3826 137.127C45.5105 137.074 45.6476 137.047 45.786 137.047Z" fill="#2F2E41"/>
<path d="M51.8382 137.35L50.7748 137.35L50.2686 133.255H51.8386L51.8382 137.35Z" fill="#A0616A"/>
<path d="M49.7773 137.047H52.0663V138.336H48.7231V138.099C48.7231 137.961 48.7504 137.824 48.8034 137.696C48.8563 137.569 48.934 137.453 49.0319 137.355C49.1298 137.257 49.246 137.18 49.3739 137.127C49.5017 137.074 49.6388 137.047 49.7773 137.047Z" fill="#2F2E41"/>
<path d="M47.7968 135.287L46.6258 135.232C46.5261 135.227 46.4319 135.184 46.3627 135.112C46.2936 135.04 46.2546 134.945 46.2539 134.845C45.9452 130.089 45.5177 124.99 46.1722 123.02C46.1718 122.964 46.1836 122.908 46.2067 122.857C46.2298 122.806 46.2637 122.761 46.3061 122.724C46.3485 122.687 46.3984 122.659 46.4524 122.644C46.5063 122.628 46.5631 122.624 46.6187 122.632L51.3035 123.31C51.396 123.323 51.4808 123.369 51.5422 123.44C51.6037 123.51 51.6376 123.6 51.6378 123.693C52.2359 126.026 52.263 130.255 52.2404 134.65C52.2407 134.702 52.2309 134.753 52.2115 134.8C52.192 134.848 52.1633 134.891 52.127 134.928C52.0907 134.964 52.0476 134.993 52 135.013C51.9524 135.033 51.9014 135.043 51.8499 135.043H50.5875C50.4943 135.043 50.4042 135.01 50.3334 134.95C50.2626 134.889 50.2159 134.806 50.2018 134.714L49.4229 129.772C49.4115 129.7 49.3743 129.634 49.3181 129.587C49.2619 129.54 49.1906 129.515 49.1173 129.516C49.044 129.517 48.9736 129.545 48.9192 129.594C48.8648 129.643 48.8301 129.71 48.8214 129.783L48.2031 134.944C48.1914 135.039 48.1456 135.126 48.0742 135.189C48.0028 135.252 47.9108 135.287 47.8153 135.288C47.8092 135.288 47.803 135.288 47.7968 135.287Z" fill="#2F2E41"/>
<path d="M48.6212 123.694C47.9374 123.293 47.1796 123.034 46.3931 122.932C46.3414 122.927 46.2913 122.911 46.2457 122.887C46.2002 122.862 46.1602 122.828 46.1282 122.787C46.0954 122.746 46.0714 122.699 46.0575 122.648C46.0436 122.597 46.0402 122.544 46.0474 122.492L47.1699 114.175C47.2345 113.688 47.4228 113.226 47.7169 112.833C48.011 112.44 48.401 112.128 48.85 111.927C49.2845 111.728 49.763 111.643 50.2398 111.68C50.7166 111.717 51.1759 111.876 51.574 112.14C51.6125 112.166 51.6502 112.192 51.6872 112.219C52.1457 112.554 52.4945 113.017 52.6896 113.55C52.8847 114.083 52.9174 114.661 52.7836 115.212C52.0953 118.023 51.8588 122.63 51.8184 123.525C51.8153 123.602 51.7895 123.675 51.7445 123.737C51.6994 123.799 51.637 123.846 51.5652 123.872C51.1417 124.026 50.6948 124.105 50.2442 124.107C49.6766 124.11 49.1177 123.968 48.6212 123.694Z" fill="#3F3D56"/>
<path d="M49.5602 110.798C50.7372 110.798 51.6913 109.846 51.6913 108.671C51.6913 107.497 50.7372 106.544 49.5602 106.544C48.3833 106.544 47.4292 107.497 47.4292 108.671C47.4292 109.846 48.3833 110.798 49.5602 110.798Z" fill="#A0616A"/>
<path d="M51.0681 110.354C50.979 110.45 50.8644 110.518 50.7376 110.551C50.6108 110.584 50.4772 110.581 50.3525 110.541C50.2278 110.501 50.1171 110.426 50.0335 110.325C49.9499 110.224 49.8968 110.102 49.8805 109.972C49.8764 109.927 49.8767 109.882 49.8813 109.837C49.959 109.592 50.0058 109.337 50.0207 109.079C50.0126 109.012 49.9876 108.948 49.9478 108.893C49.631 108.47 48.8873 109.083 48.5883 108.699C48.405 108.464 48.6205 108.094 48.4798 107.832C48.2941 107.485 47.7442 107.656 47.3993 107.466C47.0155 107.255 47.0385 106.667 47.2911 106.31C47.4555 106.099 47.6645 105.926 47.9034 105.805C48.1422 105.684 48.4048 105.616 48.6727 105.608C49.209 105.595 49.7416 105.699 50.2338 105.912C50.815 106.101 51.3279 106.456 51.7088 106.933C51.9059 107.246 52.0308 107.598 52.0744 107.965C52.1181 108.332 52.0794 108.704 51.9612 109.054C51.7528 109.542 51.4492 109.984 51.0681 110.354Z" fill="#2F2E41"/>
<path d="M52.7558 112.422C52.7185 112.247 52.3983 112.008 51.9402 111.813C51.2039 111.515 50.4074 111.395 49.6159 111.463C48.8243 111.531 48.0599 111.784 47.3851 112.202C47.338 112.205 47.293 112.223 47.2571 112.253C47.2212 112.284 47.1964 112.325 47.1864 112.371L45.6454 119.173L45.445 120.059L45.3123 120.645L45.1118 121.529L45.0051 122.001C44.9983 122.031 44.998 122.062 45.0042 122.092C45.0105 122.123 45.0232 122.151 45.0414 122.176C45.0597 122.201 45.083 122.222 45.11 122.237C45.137 122.253 45.1669 122.262 45.1977 122.265L51.8517 122.838C51.8578 122.838 51.8647 122.839 51.8708 122.839C51.9257 122.838 51.9784 122.817 52.0184 122.78C52.0583 122.742 52.0825 122.691 52.086 122.636L52.1493 121.674L52.217 120.645L52.2465 120.199L52.3133 119.173L52.7567 112.433V112.427L52.7558 112.422Z" fill="#1F4C6B"/>
<path d="M41.8378 112.85C41.8484 112.896 41.8554 112.944 41.8585 112.992L45.5857 115.138L46.4917 114.617L47.4575 115.879L45.5194 117.258L41.2672 113.91C41.0938 113.974 40.905 113.984 40.7258 113.938C40.5466 113.892 40.3856 113.793 40.2642 113.654C40.1428 113.515 40.0668 113.342 40.0462 113.159C40.0256 112.975 40.0614 112.79 40.1489 112.627C40.2365 112.465 40.3715 112.332 40.5361 112.248C40.7007 112.164 40.887 112.132 41.0704 112.156C41.2537 112.18 41.4253 112.26 41.5624 112.384C41.6995 112.507 41.7955 112.67 41.8378 112.85V112.85Z" fill="#A0616A"/>
<path d="M45.7188 114.955C45.7126 114.897 45.7194 114.839 45.7388 114.784C45.7583 114.73 45.7897 114.68 45.831 114.639L47.7279 112.745C47.9159 112.558 48.1668 112.446 48.4322 112.432C48.6977 112.418 48.9589 112.503 49.1655 112.67C49.3721 112.837 49.5095 113.074 49.5511 113.336C49.5928 113.598 49.5358 113.866 49.3911 114.089L48.0401 116.166C47.9837 116.253 47.8951 116.314 47.7939 116.335C47.6926 116.357 47.587 116.337 47.5001 116.281L45.8945 115.241C45.8457 115.21 45.8045 115.168 45.7741 115.118C45.7437 115.069 45.7248 115.013 45.7188 114.955Z" fill="#1F4C6B"/>
<path d="M52.3133 119.173L52.2467 120.2L45.4448 120.059L45.6454 119.173H52.3133Z" fill="#CCCCCC"/>
<path d="M52.217 120.646L52.1492 121.674L45.1118 121.529L45.3124 120.646H52.217Z" fill="#CCCCCC"/>
<path d="M49.602 104.539C48.8807 104.539 48.1878 104.819 47.67 105.32C47.1522 105.821 46.8501 106.504 46.8277 107.223H46.3049C46.2589 107.223 46.2147 107.242 46.1822 107.274C46.1496 107.307 46.1313 107.351 46.1313 107.397V108.089C46.1313 108.135 46.1496 108.179 46.1822 108.212C46.2147 108.244 46.2589 108.263 46.3049 108.263H52.2049C52.2509 108.263 52.2951 108.244 52.3276 108.212C52.3601 108.179 52.3784 108.135 52.3784 108.089V107.31C52.3784 106.946 52.3066 106.586 52.1671 106.25C52.0276 105.913 51.823 105.608 51.5652 105.351C51.3074 105.093 51.0013 104.889 50.6645 104.75C50.3276 104.611 49.9666 104.539 49.602 104.539Z" fill="#1F4C6B"/>
<path d="M65.2283 132.73H64.6332C64.6294 132.658 63.8305 130.787 63.8305 130.787L63.3476 129.621L63.0283 128.844L62.5454 127.678L61.9925 126.337C61.9783 126.277 61.9441 126.223 61.8953 126.184C61.8465 126.145 61.7861 126.124 61.7238 126.124C61.6616 126.124 61.6011 126.145 61.5524 126.184C61.5036 126.223 61.4693 126.277 61.4552 126.337L60.9023 127.678L60.4193 128.844L60.1001 129.621L59.6172 130.787C59.6172 130.787 58.8183 132.658 58.8144 132.73H58.2193C58.0644 132.73 57.9159 132.791 57.8063 132.901C57.6968 133.01 57.6353 133.158 57.6353 133.313C57.6353 133.467 57.6968 133.616 57.8063 133.725C57.9159 133.834 58.0644 133.896 58.2193 133.896H65.2283C65.3832 133.896 65.5318 133.834 65.6414 133.725C65.7509 133.616 65.8124 133.467 65.8124 133.313C65.8124 133.158 65.7509 133.01 65.6414 132.901C65.5318 132.791 65.3832 132.73 65.2283 132.73Z" fill="#FF6584"/>
<path d="M64.8389 142.834H64.6083C64.6294 142.784 63.6046 140.168 63.6046 140.168L62.9893 138.672L62.5765 137.669L61.9613 136.173L61.2916 134.553C61.2728 134.476 61.2288 134.408 61.1666 134.359C61.1045 134.311 61.0279 134.284 60.9489 134.284C60.87 134.284 60.7933 134.311 60.7312 134.359C60.669 134.408 60.625 134.476 60.6062 134.553L59.9366 136.173L59.3213 137.669L58.9045 138.672L58.2895 140.168C58.2895 140.168 57.2684 142.784 57.2895 142.834H57.0511C56.8962 142.834 56.7476 142.896 56.6381 143.005C56.5286 143.114 56.467 143.262 56.467 143.417C56.467 143.572 56.5286 143.72 56.6381 143.829C56.7476 143.939 56.8962 144 57.0511 144H64.8389C64.9938 144 65.1424 143.939 65.2519 143.829C65.3615 143.72 65.423 143.572 65.423 143.417C65.423 143.262 65.3615 143.114 65.2519 143.005C65.1424 142.896 64.9938 142.834 64.8389 142.834Z" fill="#FF6584"/>
<path d="M63.0281 128.844H60.4192L60.902 127.678H62.5452L63.0281 128.844Z" fill="#F2F2F2"/>
<path d="M63.8301 130.787H59.6169L60.0998 129.621H63.3473L63.8301 130.787Z" fill="#F2F2F2"/>
<path d="M62.5763 137.669H59.321L59.9363 136.173H61.9611L62.5763 137.669Z" fill="#F2F2F2"/>
<path d="M63.6045 140.168H58.2893L58.9045 138.672H62.9892L63.6045 140.168Z" fill="#F2F2F2"/>
<path d="M150.771 110.48C150.831 110.421 150.877 110.349 150.907 110.27C150.936 110.19 150.948 110.106 150.941 110.022C150.934 109.938 150.908 109.856 150.866 109.783C150.824 109.709 150.767 109.646 150.698 109.598L150.406 107.676L149.206 108.052L149.863 109.767C149.789 109.889 149.762 110.033 149.787 110.173C149.812 110.313 149.888 110.438 150 110.526C150.112 110.614 150.252 110.658 150.394 110.649C150.536 110.641 150.67 110.58 150.771 110.48Z" fill="#FFB8B8"/>
<path d="M149.535 109.576L148.795 106.125C148.722 105.795 148.737 105.451 148.836 105.128C148.935 104.804 149.115 104.512 149.36 104.278C150.307 103.366 151.525 102.218 151.946 101.921C152.341 101.64 152.818 101.499 153.303 101.521L153.313 101.522L153.95 102.123L152.563 104.402L150.457 105.718L150.691 109.1L149.535 109.576Z" fill="#8BC83F"/>
<path d="M152.127 104.887H149.021C148.886 104.887 148.777 104.996 148.777 105.13C148.777 105.264 148.886 105.373 149.021 105.373H152.127C152.262 105.373 152.371 105.264 152.371 105.13C152.371 104.996 152.262 104.887 152.127 104.887Z" fill="#CCCCCC"/>
<path d="M152.127 110.176H149.021C148.886 110.176 148.777 110.284 148.777 110.419C148.777 110.553 148.886 110.662 149.021 110.662H152.127C152.262 110.662 152.371 110.553 152.371 110.419C152.371 110.284 152.262 110.176 152.127 110.176Z" fill="#CCCCCC"/>
<path d="M150.604 123.428C150.574 123.428 150.545 123.416 150.522 123.396C150.5 123.375 150.486 123.347 150.483 123.317L148.93 105.141C148.929 105.125 148.93 105.109 148.935 105.094C148.94 105.078 148.948 105.064 148.958 105.052C148.968 105.04 148.981 105.029 148.995 105.022C149.009 105.015 149.025 105.01 149.041 105.009C149.057 105.007 149.073 105.009 149.088 105.014C149.103 105.019 149.118 105.026 149.13 105.037C149.142 105.047 149.152 105.06 149.16 105.074C149.167 105.088 149.172 105.103 149.173 105.119L150.603 121.913L151.992 105.12C151.993 105.104 151.998 105.088 152.005 105.074C152.012 105.06 152.023 105.047 152.035 105.037C152.047 105.026 152.061 105.019 152.076 105.014C152.092 105.009 152.108 105.007 152.124 105.009C152.14 105.01 152.155 105.014 152.17 105.022C152.184 105.029 152.196 105.039 152.207 105.052C152.217 105.064 152.225 105.078 152.23 105.093C152.234 105.109 152.236 105.125 152.235 105.141L150.726 123.317C150.723 123.347 150.709 123.375 150.687 123.396C150.664 123.416 150.635 123.428 150.605 123.428L150.604 123.428Z" fill="#CCCCCC"/>
<path d="M154.091 100.794C154.973 100.794 155.689 100.079 155.689 99.1986C155.689 98.3176 154.973 97.6035 154.091 97.6035C153.208 97.6035 152.492 98.3176 152.492 99.1986C152.492 100.079 153.208 100.794 154.091 100.794Z" fill="#FFB8B8"/>
<path d="M149.328 122.699L148.568 122.457L149.14 119.416L150.262 119.773L149.328 122.699Z" fill="#FFB8B8"/>
<path d="M149.285 123.372L146.839 122.593L146.859 122.53C146.937 122.287 147.108 122.085 147.335 121.968C147.561 121.851 147.825 121.829 148.069 121.906L149.598 122.392L149.285 123.372Z" fill="#2F2E41"/>
<path d="M154.858 122.683H154.06L153.68 119.612H154.858V122.683Z" fill="#FFB8B8"/>
<path d="M152.552 123.392H154.998V122.486H153.454C153.215 122.486 152.985 122.581 152.816 122.75C152.647 122.919 152.552 123.148 152.552 123.386V123.392Z" fill="#2F2E41"/>
<path d="M154.834 121.686L154.565 121.646C154.227 121.626 153.893 121.564 153.57 121.461C153.504 121.432 153.499 120.993 153.539 118.527C153.568 116.717 153.604 114.465 153.534 113.256C153.531 113.208 153.512 113.162 153.48 113.127C153.448 113.091 153.405 113.067 153.358 113.059C153.311 113.051 153.262 113.058 153.22 113.081C153.178 113.104 153.145 113.14 153.125 113.184C152.518 114.584 151.498 117.718 150.824 119.792C150.589 120.513 150.404 121.083 150.287 121.425C150.264 121.489 150.218 121.543 150.158 121.576C150.097 121.608 150.027 121.617 149.961 121.601C149.405 121.462 149.443 121.403 148.652 121.199C148.583 121.182 148.524 121.139 148.487 121.079C148.45 121.019 148.437 120.947 148.452 120.878C148.595 120.205 151.212 109.292 151.412 108.254C151.419 108.219 151.433 108.185 151.453 108.155C151.473 108.125 151.499 108.099 151.529 108.078C151.559 108.058 151.592 108.044 151.628 108.037C151.663 108.03 151.7 108.03 151.736 108.037C152.325 108.156 152.683 108.281 153.266 108.403C153.894 108.534 154.544 108.67 155.177 108.796C155.24 108.809 155.297 108.843 155.337 108.894C155.513 109.082 155.731 109.228 155.972 109.32C156.138 109.399 155.762 109.392 155.907 109.506C156.492 109.969 155.65 119.359 155.142 121.48C155.125 121.547 155.085 121.605 155.028 121.643C154.971 121.681 154.902 121.697 154.834 121.686V121.686Z" fill="#2F2E41"/>
<path d="M154.772 100.594C154.679 100.199 155.15 99.3488 155.057 98.9536C154.994 98.686 154.363 98.8679 154.216 98.6355C154.148 98.5157 154.051 98.4145 153.934 98.3406C153.818 98.2667 153.685 98.2224 153.547 98.2117C153.23 98.2082 152.919 98.4426 152.619 98.3413C152.548 98.3061 152.485 98.2573 152.433 98.1975C152.381 98.1378 152.342 98.0684 152.317 97.9933C152.292 97.9182 152.283 97.8389 152.289 97.7601C152.295 97.6813 152.317 97.6045 152.353 97.5342C152.513 97.2548 152.763 97.0367 153.061 96.9143C153.531 96.6275 154.094 96.5331 154.633 96.6506C154.941 96.7698 155.223 96.9469 155.464 97.1722C155.706 97.351 155.919 97.5662 156.094 97.8102C156.243 98.0646 156.324 98.353 156.329 98.6477C156.333 98.9423 156.262 99.2332 156.121 99.4922C155.83 100.009 155.366 100.408 154.811 100.618" fill="#2F2E41"/>
<path d="M150.848 109.79C151.02 109.502 151.282 108.155 151.605 105.893C151.825 104.349 152.016 102.78 152.111 101.979C152.119 101.914 152.143 101.852 152.18 101.799C152.218 101.745 152.269 101.703 152.328 101.675C152.39 101.645 152.451 101.617 152.512 101.59C153.244 101.256 154.056 101.138 154.853 101.249C155.65 101.361 156.399 101.698 157.01 102.221L157.017 102.228L157.019 102.237C157.022 102.255 157.352 104.03 156.676 105.23C156.009 106.413 156.002 109.548 156.002 109.579V109.619L155.963 109.608C154.925 109.313 150.918 109.83 150.878 109.835L150.815 109.844L150.848 109.79Z" fill="#8BC83F"/>
<path d="M156.878 105.677H153.772C153.637 105.677 153.528 105.786 153.528 105.92C153.528 106.055 153.637 106.164 153.772 106.164H156.878C157.013 106.164 157.122 106.055 157.122 105.92C157.122 105.786 157.013 105.677 156.878 105.677Z" fill="#CCCCCC"/>
<path d="M156.878 110.966H153.772C153.637 110.966 153.528 111.075 153.528 111.209C153.528 111.343 153.637 111.452 153.772 111.452H156.878C157.013 111.452 157.122 111.343 157.122 111.209C157.122 111.075 157.013 110.966 156.878 110.966Z" fill="#CCCCCC"/>
<path d="M155.355 123.489C155.325 123.489 155.296 123.477 155.273 123.457C155.251 123.436 155.237 123.408 155.234 123.378L153.681 105.931C153.678 105.899 153.688 105.867 153.709 105.842C153.73 105.818 153.76 105.802 153.792 105.799C153.824 105.796 153.856 105.806 153.881 105.827C153.905 105.848 153.921 105.878 153.924 105.91L155.354 121.973L156.743 105.91C156.744 105.894 156.749 105.878 156.756 105.864C156.763 105.85 156.773 105.837 156.786 105.827C156.798 105.817 156.812 105.809 156.827 105.804C156.843 105.799 156.859 105.797 156.875 105.799C156.891 105.8 156.906 105.805 156.921 105.812C156.935 105.819 156.947 105.83 156.958 105.842C156.968 105.854 156.976 105.868 156.981 105.884C156.985 105.899 156.987 105.915 156.986 105.931L155.477 123.378C155.474 123.408 155.46 123.436 155.438 123.457C155.415 123.477 155.386 123.489 155.356 123.489L155.355 123.489Z" fill="#CCCCCC"/>
<path d="M154.353 111.043C154.334 110.96 154.335 110.875 154.353 110.793C154.372 110.71 154.408 110.633 154.46 110.566C154.511 110.499 154.577 110.445 154.652 110.406C154.727 110.367 154.81 110.345 154.894 110.342L156.186 108.887L156.988 109.854L155.503 110.937C155.499 111.079 155.443 111.215 155.346 111.319C155.249 111.422 155.117 111.487 154.975 111.5C154.833 111.513 154.691 111.474 154.577 111.389C154.462 111.305 154.382 111.182 154.353 111.043H154.353Z" fill="#FFB8B8"/>
<path d="M155.104 110.03L157.142 107.318L156.092 105.071L156.168 102.405L157.029 102.247L157.038 102.251C157.457 102.495 157.781 102.873 157.96 103.323C158.151 103.8 158.548 105.425 158.848 106.704C158.926 107.033 158.918 107.376 158.825 107.702C158.732 108.027 158.557 108.323 158.316 108.561L155.816 111.056L155.104 110.03Z" fill="#8BC83F"/>
<path d="M146.562 122.734L149.35 123.404C149.404 123.419 149.462 123.414 149.512 123.39C149.563 123.366 149.604 123.326 149.628 123.275L152.022 116.92C152.033 116.896 152.039 116.869 152.039 116.843C152.039 116.816 152.033 116.79 152.023 116.765C152.011 116.738 151.993 116.713 151.971 116.693C151.949 116.672 151.923 116.656 151.895 116.646L149.799 115.847C149.766 115.835 149.73 115.829 149.695 115.831C149.66 115.833 149.625 115.842 149.593 115.859C149.566 115.872 149.542 115.891 149.522 115.915C149.503 115.938 149.489 115.966 149.481 115.995L149.481 115.996L148.002 121.597L147.98 121.598C147.521 121.625 147.084 121.807 146.742 122.113C146.671 122.199 146.618 122.298 146.587 122.405C146.556 122.512 146.548 122.624 146.562 122.734Z" fill="#CCCCCC"/>
<path d="M148.581 119.172L148.568 119.293L151.11 119.562L151.123 119.441L148.581 119.172Z" fill="#B3B3B3"/>
<path d="M148.36 120.174L148.31 120.284L150.355 121.203L150.405 121.092L148.36 120.174Z" fill="#B3B3B3"/>
<path d="M151.391 118.589L148.979 117.792L149.03 117.681L151.44 118.478L151.391 118.589Z" fill="#B3B3B3"/>
<path d="M151.634 118.042L149.223 116.88L149.273 116.769L151.684 117.931L151.634 118.042Z" fill="#B3B3B3"/>
<path d="M148.147 121.126L148.068 121.218L149.806 122.7L149.885 122.608L148.147 121.126Z" fill="#B3B3B3"/>
<path d="M147.653 121.617L147.542 121.667L148.24 123.203L148.351 123.153L147.653 121.617Z" fill="#B3B3B3"/>
<path d="M215.601 110.989C215.498 110.965 215.401 110.918 215.317 110.853C215.234 110.788 215.166 110.705 215.118 110.611C215.07 110.516 215.043 110.412 215.04 110.307C215.037 110.201 215.056 110.096 215.098 109.998L212.424 103.968L213.954 103.583L216.102 109.632C216.261 109.713 216.384 109.849 216.45 110.015C216.515 110.181 216.517 110.365 216.455 110.532C216.393 110.699 216.272 110.838 216.115 110.922C215.957 111.007 215.775 111.03 215.601 110.989Z" fill="#A0616A"/>
<path d="M212.92 105.858C212.878 105.839 212.84 105.811 212.809 105.776C212.778 105.74 212.755 105.699 212.742 105.654L212.274 104.093C212.172 103.877 212.16 103.629 212.241 103.404C212.322 103.179 212.489 102.995 212.706 102.893C212.922 102.791 213.171 102.779 213.396 102.86C213.622 102.941 213.806 103.108 213.908 103.324L214.812 104.687C214.838 104.726 214.855 104.77 214.863 104.816C214.87 104.862 214.867 104.909 214.854 104.954C214.842 104.999 214.82 105.041 214.789 105.076C214.759 105.112 214.721 105.141 214.679 105.16L213.191 105.855C213.149 105.875 213.103 105.886 213.056 105.886C213.009 105.886 212.963 105.877 212.92 105.858Z" fill="#6C63FF"/>
<path d="M218.365 105.08L216.724 106.239C216.703 106.254 216.678 106.263 216.652 106.263C216.626 106.263 216.601 106.254 216.579 106.239L216.136 105.907C216.121 105.896 216.109 105.882 216.101 105.866C216.092 105.85 216.087 105.832 216.087 105.814C216.086 105.796 216.089 105.778 216.096 105.761C216.104 105.744 216.114 105.729 216.128 105.717L217.391 104.594C217.407 104.58 217.427 104.57 217.449 104.566C217.471 104.561 217.493 104.563 217.514 104.57L218.335 104.864C218.356 104.871 218.375 104.885 218.389 104.902C218.403 104.92 218.412 104.941 218.415 104.963C218.418 104.985 218.415 105.008 218.406 105.028C218.397 105.049 218.383 105.067 218.365 105.08Z" fill="#3F3D56"/>
<path d="M218.231 104.97C218.235 104.959 218.234 104.947 218.23 104.937C218.225 104.926 218.216 104.918 218.205 104.914L217.465 104.65C217.458 104.647 217.45 104.646 217.442 104.648C217.435 104.649 217.428 104.653 217.422 104.658L216.283 105.671L216.277 105.678C216.274 105.682 216.271 105.687 216.27 105.693C216.269 105.698 216.268 105.704 216.269 105.709C216.27 105.715 216.272 105.72 216.275 105.725C216.278 105.73 216.282 105.734 216.287 105.737L216.685 106.036C216.693 106.041 216.702 106.044 216.711 106.044C216.72 106.044 216.729 106.041 216.737 106.035L218.215 104.991C218.222 104.985 218.228 104.978 218.231 104.97Z" fill="white"/>
<path d="M212.386 122.361H213.214L213.608 119.174H212.386V122.361Z" fill="#A0616A"/>
<path d="M212.175 122.091L213.805 122.091H213.805C213.942 122.091 214.077 122.118 214.203 122.17C214.329 122.222 214.443 122.299 214.54 122.395C214.636 122.491 214.713 122.606 214.765 122.731C214.817 122.857 214.844 122.992 214.844 123.128V123.162L212.175 123.162L212.175 122.091Z" fill="#2F2E41"/>
<path d="M209.617 122.361H210.445L210.839 119.174H209.617V122.361Z" fill="#A0616A"/>
<path d="M209.406 122.091L211.036 122.091H211.036C211.173 122.091 211.308 122.118 211.434 122.17C211.56 122.222 211.675 122.299 211.771 122.395C211.867 122.491 211.944 122.606 211.996 122.731C212.048 122.857 212.075 122.992 212.075 123.128V123.162L209.406 123.162L209.406 122.091Z" fill="#2F2E41"/>
<path d="M209.441 121.387C209.384 121.322 209.353 121.24 209.351 121.153C209.154 119.127 209.691 108.475 210.932 107.565L210.94 107.557L214.571 106.932L214.639 106.999C214.644 107.093 215.304 116.43 213.481 121.196C213.459 121.253 213.42 121.301 213.369 121.336C213.319 121.37 213.259 121.389 213.198 121.389H212.473C212.431 121.389 212.389 121.38 212.351 121.363C212.313 121.346 212.278 121.322 212.25 121.291C212.221 121.26 212.199 121.224 212.186 121.185C212.172 121.145 212.167 121.103 212.17 121.062L212.757 112.139C212.759 112.113 212.751 112.088 212.735 112.068C212.719 112.047 212.696 112.034 212.671 112.03C212.645 112.027 212.619 112.033 212.598 112.047C212.577 112.062 212.562 112.084 212.557 112.109L210.904 121.165C210.89 121.229 210.855 121.287 210.806 121.33C210.756 121.372 210.695 121.398 210.629 121.403L209.677 121.474C209.67 121.474 209.662 121.475 209.655 121.475C209.575 121.475 209.498 121.443 209.441 121.387Z" fill="#2F2E41"/>
<path d="M214.22 101.469C215.136 101.469 215.879 100.728 215.879 99.8141C215.879 98.8998 215.136 98.1587 214.22 98.1587C213.304 98.1587 212.561 98.8998 212.561 99.8141C212.561 100.728 213.304 101.469 214.22 101.469Z" fill="#A0616A"/>
<path d="M210.225 109.015C210.155 108.943 210.115 108.848 210.112 108.748L210.79 105.584C210.249 103.292 210.969 102.863 211.78 102.428L211.775 102.426L212.114 101.51C212.125 101.469 212.145 101.431 212.172 101.399C212.199 101.367 212.233 101.341 212.271 101.323C212.309 101.305 212.351 101.296 212.393 101.297C212.435 101.297 212.477 101.306 212.515 101.325L214.244 102.241C214.322 102.285 214.379 102.357 214.404 102.443C214.434 102.534 214.432 102.632 214.399 102.721L214.271 103.066C214.601 103.506 215.112 105.247 214.571 105.921L214.979 108.167C214.988 108.249 214.967 108.332 214.921 108.402C214.875 108.471 214.806 108.521 214.726 108.545L210.466 109.09C210.45 109.094 210.433 109.095 210.416 109.095C210.344 109.094 210.276 109.065 210.225 109.015Z" fill="#1F4C6B"/>
<path d="M216.426 105.385C216.399 105.411 216.374 105.438 216.351 105.468L213.01 105.237L212.652 104.508L211.479 104.904L211.987 106.256C212.029 106.366 212.104 106.459 212.203 106.521C212.301 106.584 212.417 106.613 212.534 106.604L216.333 106.317C216.417 106.434 216.535 106.522 216.671 106.57C216.806 106.618 216.953 106.624 217.092 106.587C217.231 106.55 217.356 106.471 217.449 106.361C217.542 106.252 217.6 106.117 217.614 105.974C217.628 105.831 217.599 105.687 217.529 105.561C217.459 105.435 217.353 105.334 217.224 105.27C217.095 105.206 216.95 105.183 216.807 105.203C216.665 105.224 216.532 105.287 216.426 105.385V105.385Z" fill="#A0616A"/>
<path d="M212.885 105.249L211.429 105.733C211.388 105.746 211.344 105.751 211.3 105.746C211.257 105.742 211.215 105.728 211.177 105.705C211.14 105.683 211.108 105.653 211.083 105.617C211.058 105.581 211.041 105.54 211.034 105.498L210.768 103.994C210.699 103.782 210.717 103.551 210.817 103.352C210.918 103.153 211.094 103.002 211.306 102.932C211.519 102.862 211.75 102.879 211.95 102.979C212.149 103.079 212.301 103.254 212.371 103.466L213.06 104.824C213.08 104.863 213.091 104.906 213.093 104.949C213.095 104.993 213.087 105.036 213.07 105.077C213.054 105.117 213.029 105.153 212.997 105.183C212.965 105.213 212.927 105.235 212.885 105.249Z" fill="#1F4C6B"/>
<path d="M213.288 98.5067C214.034 98.5067 214.639 97.9032 214.639 97.1588C214.639 96.4143 214.034 95.8108 213.288 95.8108C212.542 95.8108 211.938 96.4143 211.938 97.1588C211.938 97.9032 212.542 98.5067 213.288 98.5067Z" fill="#2F2E41"/>
<path d="M215.79 100.019C215.921 100.045 216.057 100.033 216.181 99.9859C216.245 99.9499 216.299 99.8995 216.339 99.8388C216.379 99.778 216.405 99.7087 216.413 99.6363C216.665 97.9676 215.243 98.1048 215.075 98.0326C214.969 97.9705 214.869 97.8979 214.778 97.816C214.541 97.6849 214.271 97.6256 214.001 97.6455C213.682 97.616 213.36 97.6553 213.057 97.7607C212.793 97.884 212.574 98.0856 212.429 98.3379C212.286 98.5891 212.182 98.8601 212.118 99.1421C212.019 99.4613 212.001 99.8002 212.065 100.128C212.135 100.373 212.279 100.59 212.477 100.749C212.676 100.908 212.92 101.001 213.174 101.015C213.133 100.819 213.159 100.614 213.246 100.434C213.333 100.253 213.477 100.106 213.657 100.016C213.942 99.8758 214.266 99.8372 214.576 99.9065C214.777 99.9471 214.981 99.9725 215.186 99.9823C215.387 99.9898 215.629 100.002 215.79 100.019Z" fill="#2F2E41"/>
<path d="M345.598 122.69C345.599 120.922 346.304 119.226 347.557 117.976C348.811 116.726 350.51 116.024 352.282 116.024C354.054 116.024 355.753 116.726 357.006 117.976C358.26 119.226 358.965 120.922 358.966 122.69" fill="#F2F2F2"/>
<path d="M352.282 122.69C352.234 122.69 352.188 122.671 352.154 122.637C352.12 122.603 352.101 122.558 352.101 122.51V118.994C352.101 118.946 352.12 118.9 352.154 118.867C352.188 118.833 352.234 118.814 352.282 118.814C352.33 118.814 352.376 118.833 352.41 118.867C352.444 118.9 352.463 118.946 352.463 118.994V122.51C352.463 122.558 352.444 122.603 352.41 122.637C352.376 122.671 352.33 122.69 352.282 122.69Z" fill="#CCCCCC"/>
<path d="M352.282 121.482C352.239 121.482 352.197 121.467 352.164 121.438L349.997 119.582C349.978 119.566 349.963 119.547 349.952 119.526C349.941 119.505 349.935 119.482 349.933 119.458C349.931 119.434 349.934 119.411 349.941 119.388C349.949 119.365 349.96 119.344 349.976 119.326C349.991 119.308 350.01 119.293 350.032 119.283C350.053 119.272 350.076 119.266 350.1 119.264C350.124 119.262 350.148 119.265 350.17 119.273C350.193 119.28 350.214 119.292 350.232 119.308L352.4 121.165C352.428 121.189 352.448 121.221 352.457 121.257C352.466 121.292 352.464 121.33 352.451 121.364C352.439 121.399 352.415 121.429 352.385 121.45C352.355 121.471 352.319 121.482 352.282 121.482L352.282 121.482Z" fill="#CCCCCC"/>
<path d="M366.192 122.69C366.193 120.922 366.898 119.226 368.151 117.976C369.405 116.726 371.104 116.024 372.876 116.024C374.648 116.024 376.347 116.726 377.6 117.976C378.854 119.226 379.559 120.922 379.56 122.69" fill="#F2F2F2"/>
<path d="M372.876 122.69C372.828 122.69 372.782 122.671 372.748 122.637C372.714 122.603 372.695 122.558 372.695 122.51V118.994C372.695 118.946 372.714 118.9 372.748 118.867C372.782 118.833 372.828 118.814 372.876 118.814C372.924 118.814 372.97 118.833 373.004 118.867C373.038 118.9 373.057 118.946 373.057 118.994V122.51C373.057 122.558 373.038 122.603 373.004 122.637C372.97 122.671 372.924 122.69 372.876 122.69Z" fill="#CCCCCC"/>
<path d="M372.876 121.482C372.833 121.482 372.791 121.467 372.758 121.439L370.59 119.582C370.572 119.566 370.557 119.548 370.546 119.526C370.535 119.505 370.529 119.482 370.527 119.458C370.525 119.435 370.528 119.411 370.535 119.388C370.542 119.365 370.554 119.344 370.57 119.326C370.585 119.308 370.604 119.293 370.626 119.283C370.647 119.272 370.67 119.266 370.694 119.264C370.718 119.262 370.742 119.265 370.764 119.273C370.787 119.28 370.808 119.292 370.826 119.308L372.994 121.165C373.022 121.189 373.042 121.221 373.051 121.257C373.06 121.292 373.058 121.33 373.045 121.364C373.033 121.399 373.009 121.429 372.979 121.45C372.949 121.471 372.913 121.482 372.876 121.482V121.482Z" fill="#CCCCCC"/>
</g>
<defs>
<clipPath id="clip0_241_1761">
<rect width="408" height="175" fill="white" transform="translate(-10.0388 -31)"/>
</clipPath>
</defs>
</svg>
